<svg width="118" height="56" viewBox="0 0 118 56" fill="none" xmlns="http://www.w3.org/2000/svg">
<path d="M27.1554 28.85C27.1554 24.9205 30.5723 23.0402 30.6623 22.9548C28.7754 20.3072 25.7173 19.8892 24.7279 19.8892C22.2105 19.6328 19.783 21.3411 18.5238 21.3411C17.1746 21.3411 15.2975 19.9756 13.1291 19.9756C10.4308 19.9756 7.82437 21.513 6.47521 23.8196C3.50805 28.6038 5.66572 35.6175 8.45299 39.4541C9.80215 41.3334 11.4202 43.4691 13.5778 43.3836C15.6456 43.2982 16.4551 42.1017 18.9725 42.1017C21.49 42.1017 22.1987 43.3837 24.3672 43.2982C26.6158 43.2982 27.9649 41.4189 29.3121 39.5386C30.9301 37.402 31.5607 35.2673 31.5607 35.0963C31.4708 35.0963 27.2454 33.5589 27.1554 28.8593V28.85ZM23.1099 17.3159C24.1892 15.9503 24.9968 14.1547 24.8179 12.3608C23.1998 12.4463 21.2201 13.3864 20.0528 14.7529C19.0634 15.864 18.075 17.7442 18.3449 19.5371C20.0528 19.6226 21.9426 18.597 23.1099 17.3076V17.3159ZM46.6028 37.7718H44.452L43.2368 34.1804H39.1306L37.9829 37.7718H35.8907L39.9968 25.6516H42.5612L46.6028 37.7718ZM42.8232 32.7702L41.7439 29.6275C41.609 29.307 41.4066 28.5369 41.0595 27.319H40.9911L40.385 29.6275L39.3056 32.7702H42.8232ZM57.1311 33.3462C57.1311 34.8214 56.7264 36.0402 55.8484 36.8735C55.1054 37.6426 54.161 38.0282 53.0133 38.0282C51.798 38.0282 50.9211 37.6436 50.3814 36.8094V41.4263H48.3577V31.9351L48.2893 29.0497H50.1116L50.2465 30.4617H50.3149C50.9993 29.4361 52.0024 28.9224 53.419 28.9224C54.4983 28.9224 55.4427 29.307 56.1173 30.1412C56.8016 30.9104 57.1292 32.001 57.1292 33.348L57.1311 33.3462ZM55.0389 33.4112C55.0389 32.5779 54.8366 31.8719 54.4328 31.295C53.9606 30.719 53.4209 30.4617 52.6779 30.4617C52.2057 30.4617 51.7335 30.654 51.3288 30.9104C50.9053 31.2312 50.6178 31.6864 50.5193 32.1924C50.4508 32.3847 50.3844 32.577 50.3844 32.7683V34.2436C50.3663 34.8315 50.5828 35.4043 50.9905 35.8469C51.3943 36.2956 51.9349 36.4972 52.6105 36.4972C53.3535 36.4972 53.9596 36.2408 54.4328 35.6639C54.8376 35.088 55.0389 34.3169 55.0389 33.4196V33.4112ZM67.7269 33.3462C67.7269 34.8214 67.3221 36.0402 66.4442 36.8735C65.7012 37.6426 64.7568 38.0282 63.609 38.0282C62.3938 38.0282 61.5168 37.6436 60.9772 36.8094H60.9087V41.4263H58.885V31.9351L58.8166 29.0497H60.6389L60.7738 30.4617H60.8423C61.5266 29.4361 62.5297 28.9224 63.9463 28.9224C65.0256 28.9224 65.97 29.307 66.6446 30.1412C67.3876 30.9104 67.7239 32.001 67.7239 33.348L67.7269 33.3462ZM65.6347 33.4112C65.6347 32.5779 65.4323 31.8719 65.0286 31.295C64.5564 30.719 64.0167 30.4617 63.2737 30.4617C62.8015 30.4617 62.3293 30.654 61.9245 30.9104C61.501 31.2312 61.2136 31.6864 61.115 32.1924C61.0466 32.4488 61.0466 32.6411 61.0466 32.7683V34.2436C61.0286 34.8315 61.2451 35.4043 61.6527 35.8469C62.0565 36.2956 62.5971 36.4972 63.2727 36.4972C64.0157 36.4972 64.6219 36.2408 65.095 35.6639C65.4323 35.088 65.6347 34.3169 65.6347 33.4196V33.4112ZM79.5369 34.3718C79.5369 35.3973 79.1321 36.2315 78.3891 36.8725C77.5796 37.5785 76.4319 37.9631 74.8696 37.9631C73.5204 37.9631 72.3727 37.7067 71.5622 37.1939L72.0344 35.5905C72.9113 36.1033 73.9242 36.3597 75.0035 36.3597C75.7465 36.3597 76.3527 36.1674 76.8259 35.8469C77.2306 35.5264 77.5102 35.0778 77.5102 34.5C77.5139 34.2724 77.4679 34.0465 77.375 33.8367C77.2821 33.6269 77.1444 33.4377 76.9705 33.2811C76.6333 32.9597 76.0261 32.6309 75.2157 32.3197C72.9886 31.5505 71.8408 30.3967 71.8408 28.8565C71.8299 28.3948 71.9273 27.9367 72.1258 27.5152C72.3243 27.0938 72.619 26.7196 72.9886 26.4198C73.7981 25.7695 74.8109 25.4583 76.0926 25.4583C77.2404 25.4583 78.2435 25.6506 78.9943 26.0343L78.4546 27.6377C77.7094 27.2528 76.8733 27.0546 76.0252 27.0617C75.2822 27.0617 74.7425 27.254 74.3377 27.5745C74.0005 27.895 73.7981 28.2248 73.7981 28.6651C73.7983 28.8983 73.8529 29.1285 73.9579 29.3392C74.0628 29.5499 74.2156 29.736 74.4052 29.8839C74.7425 30.1403 75.3496 30.4599 76.295 30.8454C77.3743 31.2941 78.1848 31.7428 78.7245 32.3206C79.3306 32.8334 79.5339 33.5394 79.5339 34.3643L79.5369 34.3718ZM86.353 30.5258H84.126V34.7582C84.126 35.8488 84.5307 36.3616 85.3412 36.3616C85.6785 36.3616 86.0255 36.3616 86.2181 36.2966L86.2866 37.7718C85.8818 37.9 85.3422 37.9641 84.6666 37.9641C83.8571 37.9641 83.249 37.7077 82.7768 37.258C82.3046 36.8084 82.0924 35.9761 82.0924 34.8855V30.4701H80.7433V28.9949H82.0924V27.4556L84.1162 26.8796V29.0599H86.3433L86.353 30.5258ZM96.4766 33.3462C96.4766 34.6932 96.0719 35.7829 95.2614 36.6905C94.3844 37.5878 93.3041 38.0374 91.8865 38.0374C90.5374 38.0374 89.4571 37.5887 88.6476 36.7555C87.8381 35.9222 87.4324 34.8325 87.4324 33.5487C87.4324 32.2017 87.8371 31.112 88.6476 30.2044C89.4571 29.3711 90.6048 28.9224 92.0224 28.9224C93.3716 28.9224 94.4519 29.3711 95.2614 30.2044C96.1383 30.9736 96.4766 32.0642 96.4766 33.3471V33.3462ZM94.3844 33.4112C94.399 32.6938 94.2128 31.9856 93.8448 31.3591C93.44 30.6531 92.8329 30.3335 92.0224 30.3335C91.212 30.3335 90.6048 30.654 90.1326 31.3591C89.7953 31.9351 89.593 32.6411 89.593 33.4753C89.5784 34.1927 89.7646 34.9008 90.1326 35.5274C90.6048 36.2334 91.212 36.553 92.0224 36.553C92.8329 36.553 93.44 36.1684 93.8448 35.4623C94.1821 34.9496 94.3844 34.2436 94.3844 33.4186V33.4112ZM103.158 30.7822C102.955 30.7172 102.753 30.7172 102.474 30.7172C101.73 30.7172 101.191 30.9736 100.786 31.4864C100.449 31.9351 100.246 32.512 100.246 33.218V37.8349H98.2227V31.871L98.1543 29.1138H99.9091L99.9776 30.7813H100.046C100.237 30.23 100.588 29.741 101.058 29.3702C101.53 29.0497 102.002 28.9215 102.544 28.9215C102.746 28.9215 102.881 28.9215 103.084 28.9865L103.158 30.7822ZM112.27 33.0257C112.27 33.3462 112.27 33.676 112.201 33.9231H106.06C106.06 34.7563 106.397 35.4623 106.936 35.911C107.519 36.331 108.23 36.5563 108.961 36.552C109.838 36.552 110.716 36.4238 111.458 36.1674L111.795 37.5144C110.918 37.899 109.906 38.0272 108.691 38.0272C107.274 38.0272 106.127 37.6426 105.317 36.8084C104.507 36.0392 104.101 34.9486 104.101 33.6016C104.101 32.2546 104.506 31.165 105.249 30.3317C106.059 29.3702 107.139 28.9196 108.488 28.9196C109.837 28.9196 110.85 29.3683 111.525 30.3317C111.997 30.982 112.268 31.9351 112.268 33.0257H112.27ZM110.38 32.5129C110.38 31.9369 110.245 31.4223 109.975 31.0377C109.638 30.5249 109.098 30.2044 108.355 30.2044C107.671 30.2044 107.14 30.4608 106.735 30.9736C106.398 31.4223 106.195 31.871 106.129 32.5129H110.38Z" fill="black"/>
</svg>
