<svg width="100" height="83" viewBox="0 0 100 83" fill="none" xmlns="http://www.w3.org/2000/svg">
<path fill-rule="evenodd" clip-rule="evenodd" d="M0 58.9326C0 54.9854 3.19137 51.4181 7.07909 50.9704L30.3571 48.2902L53.6352 50.9704C57.5449 51.4206 60.7143 54.9852 60.7143 58.9326V71.4284H0V58.9326Z" fill="#80D25B"/>
<path fill-rule="evenodd" clip-rule="evenodd" d="M19.6429 39.8508C14.2676 34.7687 10.7144 26.5385 10.7144 19.6429C10.7144 8.79441 19.5088 0 30.3572 0C41.2057 0 50.0001 8.79441 50.0001 19.6429C50.0001 26.5385 46.4469 34.7687 41.0715 39.8508V51.7857C41.0715 51.7857 33.8082 54.3726 30.3572 54.3726C26.9062 54.3726 19.6429 51.7857 19.6429 51.7857V39.8508Z" fill="#FFDD95"/>
<path d="M14.2859 33.9285C17.2445 33.9285 19.643 31.53 19.643 28.5714C19.643 25.6127 17.2445 23.2142 14.2859 23.2142C11.3272 23.2142 8.92871 25.6127 8.92871 28.5714C8.92871 31.53 11.3272 33.9285 14.2859 33.9285Z" fill="#FFDD95"/>
<path d="M46.4289 33.9285C49.3876 33.9285 51.7861 31.53 51.7861 28.5714C51.7861 25.6127 49.3876 23.2142 46.4289 23.2142C43.4703 23.2142 41.0718 25.6127 41.0718 28.5714C41.0718 31.53 43.4703 33.9285 46.4289 33.9285Z" fill="#FFDD95"/>
<path fill-rule="evenodd" clip-rule="evenodd" d="M39.2856 58.9326C39.2856 54.9854 42.477 51.4181 46.3647 50.9704L69.6428 48.2902L92.9208 50.9704C96.8305 51.4206 99.9999 54.9852 99.9999 58.9326V71.4284H39.2856V58.9326Z" fill="#4796E7"/>
<path fill-rule="evenodd" clip-rule="evenodd" d="M58.9286 39.8508C53.5532 34.7687 50 26.5385 50 19.6429C50 8.79441 58.7944 0 69.6429 0C80.4913 0 89.2857 8.79441 89.2857 19.6429C89.2857 26.5385 85.7325 34.7687 80.3571 39.8508V51.7857C80.3571 51.7857 73.0939 54.3726 69.6429 54.3726C66.1918 54.3726 58.9286 51.7857 58.9286 51.7857V39.8508Z" fill="#FFDD95"/>
<path d="M53.5715 33.9285C56.5302 33.9285 58.9286 31.53 58.9286 28.5714C58.9286 25.6127 56.5302 23.2142 53.5715 23.2142C50.6128 23.2142 48.2144 25.6127 48.2144 28.5714C48.2144 31.53 50.6128 33.9285 53.5715 33.9285Z" fill="#FFDD95"/>
<path d="M85.7141 33.9285C88.6727 33.9285 91.0712 31.53 91.0712 28.5714C91.0712 25.6127 88.6727 23.2142 85.7141 23.2142C82.7554 23.2142 80.3569 25.6127 80.3569 28.5714C80.3569 31.53 82.7554 33.9285 85.7141 33.9285Z" fill="#FFDD95"/>
<path fill-rule="evenodd" clip-rule="evenodd" d="M19.6431 69.6468C19.6431 65.6996 22.8344 62.1323 26.7222 61.6847L50.0002 59.0044L73.2783 61.6847C77.1879 62.1348 80.3574 65.6994 80.3574 69.6468V82.1426H19.6431V69.6468Z" fill="#F5413E"/>
<path fill-rule="evenodd" clip-rule="evenodd" d="M39.2855 50.565C33.9101 45.4829 30.3569 37.2527 30.3569 30.3571C30.3569 19.5086 39.1513 10.7142 49.9998 10.7142C60.8482 10.7142 69.6427 19.5086 69.6427 30.3571C69.6427 37.2527 66.0895 45.4829 60.7141 50.565V62.5C60.7141 62.5 53.4508 65.0868 49.9998 65.0868C46.5488 65.0868 39.2855 62.5 39.2855 62.5V50.565Z" fill="#FFAF40"/>
<path d="M33.9289 44.6429C36.8876 44.6429 39.2861 42.2444 39.2861 39.2857C39.2861 36.3271 36.8876 33.9286 33.9289 33.9286C30.9703 33.9286 28.5718 36.3271 28.5718 39.2857C28.5718 42.2444 30.9703 44.6429 33.9289 44.6429Z" fill="#FFAF40"/>
<path d="M66.0715 44.6429C69.0302 44.6429 71.4286 42.2444 71.4286 39.2857C71.4286 36.3271 69.0302 33.9286 66.0715 33.9286C63.1128 33.9286 60.7144 36.3271 60.7144 39.2857C60.7144 42.2444 63.1128 44.6429 66.0715 44.6429Z" fill="#FFAF40"/>
</svg>
