<svg width="824" height="417" viewBox="0 0 824 417" fill="none" xmlns="http://www.w3.org/2000/svg">
<path d="M227.027 37.1706C226.957 34.4531 227.269 31.7393 227.951 29.1081C228.569 26.9332 229.864 25.0123 231.65 23.6251C233.837 22.0204 236.371 20.9501 239.046 20.5C243.158 19.7605 247.333 19.423 251.51 19.4922H304.028C318.365 19.4922 330.305 20.463 339.847 22.4047C349.389 24.3463 356.989 27.7982 362.648 32.7602C368.306 37.6915 372.285 44.4319 374.584 52.9814C376.883 61.5309 378.03 72.318 378.024 85.3426V155.465C378.024 167.793 376.375 177.581 373.077 184.83C370.133 191.66 365.184 197.435 358.885 201.39C352.72 205.187 345.154 207.652 336.185 208.787C326.089 209.999 315.926 210.574 305.757 210.506H251.76C247.66 210.567 243.561 210.316 239.499 209.757C236.788 209.424 234.202 208.423 231.973 206.845C230.086 205.385 228.727 203.35 228.099 201.048C227.302 197.957 226.941 194.77 227.027 191.58V37.1706ZM299.728 155.52C302.13 155.601 304.529 155.289 306.829 154.596C308.778 153.877 310.387 152.455 311.341 150.61C312.688 147.957 313.529 145.075 313.819 142.113C314.384 137.37 314.637 132.595 314.577 127.819V103.853C314.642 98.6801 314.389 93.508 313.819 88.366C313.32 84.4919 312.451 81.5609 311.24 79.5453C310.199 77.6874 308.515 76.2736 306.506 75.5695C304.242 74.8751 301.883 74.5473 299.516 74.5987H291.129V155.474L299.728 155.52ZM341.89 40.0184C347.623 42.8847 351.568 46.0376 353.725 49.4771C354.239 50.4173 355.098 51.1217 356.12 51.4423C357.142 51.763 358.249 51.675 359.208 51.1969C359.61 50.97 359.961 50.6622 360.237 50.293C360.514 49.9238 360.712 49.5012 360.817 49.0518C360.936 48.4491 360.921 47.8275 360.772 47.2314C360.623 46.6353 360.345 46.0793 359.957 45.603C358.225 42.7328 356.007 40.186 353.402 38.0767C351.008 36.0931 348.366 34.4302 345.542 33.1301C344.373 32.7002 343.136 32.4842 341.89 32.4921C341.28 32.479 340.678 32.6311 340.148 32.9322C339.617 33.2333 339.178 33.6723 338.876 34.2026C338.019 35.7806 338.019 37.0134 338.876 37.9011C339.764 38.7476 340.782 39.4468 341.89 39.9722V40.0184Z" fill="#6D94F0" stroke="white" stroke-width="2" stroke-miterlimit="10"/>
<path d="M404.339 157.813C403.186 164.497 401.495 171.077 399.281 177.489C397.488 182.297 395.303 185.955 392.726 188.464C390.036 191.025 386.612 192.681 382.934 193.198C378.056 193.889 373.132 194.199 368.205 194.122C363.848 194.184 359.492 193.875 355.187 193.198C351.844 192.701 348.732 191.198 346.265 188.889C343.959 186.664 342.381 183.474 341.531 179.319C340.68 175.165 340.464 169.5 340.883 162.325C341.315 155.163 342.39 146.271 344.11 135.65C345.83 125.03 348.268 112.267 351.424 97.3624C354.58 82.3098 357.412 69.4763 359.921 58.8618C361.968 49.8125 364.59 40.9028 367.771 32.1869C370.495 25.0243 373.399 19.3966 376.481 15.3036C379.399 11.3619 383.198 8.15749 387.576 5.94664C392.303 3.68057 397.404 2.29566 402.628 1.85988C408.361 1.28663 415.172 1 423.062 1C430.952 1 437.764 1.28663 443.496 1.85988C448.723 2.297 453.827 3.68182 458.558 5.94664C462.936 8.15749 466.735 11.3619 469.653 15.3036C472.735 19.3904 475.638 25.0182 478.363 32.1869C481.548 40.9113 484.206 49.819 486.324 58.8618C488.907 69.4763 491.773 82.3098 494.923 97.3624C498.079 112.286 500.544 125.048 502.319 135.65C503.9 144.474 504.977 153.38 505.546 162.325C505.898 169.5 505.645 175.165 504.788 179.319C503.931 183.474 502.319 186.664 499.952 188.889C497.432 191.185 494.289 192.684 490.919 193.198C486.614 193.875 482.258 194.184 477.901 194.122C472.937 194.206 467.975 193.897 463.061 193.198C459.421 192.662 456.038 191.008 453.38 188.464C450.804 185.949 448.646 182.29 446.908 177.489C444.78 171.061 443.133 164.485 441.98 157.813C439.113 157.952 436.062 158.026 432.845 158.026H412.947C409.933 158.026 407.064 157.955 404.339 157.813ZM422.406 108.55H428.111C429.904 108.55 431.726 108.624 433.594 108.763C431.874 98.4442 430.475 90.4309 429.396 84.723C428.317 79.0151 427.423 74.7835 426.714 72.0282C425.993 69.3099 425.346 67.6548 424.773 67.0816C424.558 66.8309 424.295 66.6257 424 66.478C423.704 66.3303 423.383 66.2432 423.053 66.2217C422.689 66.2243 422.33 66.302 421.997 66.45C421.665 66.598 421.366 66.813 421.121 67.0816C420.538 67.6548 419.9 69.2729 419.179 71.9172C418.458 74.5616 417.598 78.7686 416.599 84.5104C415.601 90.2522 414.232 98.2685 412.513 108.596L422.406 108.55ZM449.728 21.4338C451.099 21.4194 452.46 21.6786 453.73 22.1961C455 22.7137 456.154 23.4792 457.125 24.448C459.208 26.4575 460.466 28.3067 460.897 29.9956C460.994 30.508 461.212 30.9897 461.534 31.4C461.856 31.8103 462.272 32.1373 462.746 32.3534C463.284 32.5644 463.862 32.6547 464.439 32.618C465.016 32.5812 465.577 32.4183 466.084 32.1407C466.582 31.9453 467.022 31.6249 467.36 31.2104C467.699 30.7958 467.925 30.301 468.017 29.7737C468.175 28.9102 468.102 28.02 467.804 27.1941C466.452 23.3639 464.072 19.9796 460.925 17.4117C457.769 15.0304 453.891 13.8063 449.941 13.9445C448.751 13.9222 447.573 14.1787 446.501 14.6934C445.493 15.2019 444.994 16.2375 444.994 17.8093C444.994 19.3812 445.493 20.3982 446.501 20.8235C447.523 21.2482 448.622 21.456 449.728 21.4338Z" fill="#6D94F0" stroke="white" stroke-width="2" stroke-miterlimit="10"/>
<path d="M513.969 236.571C509.079 236.624 504.191 236.336 499.341 235.711C495.687 235.279 492.205 233.909 489.236 231.735C486.505 229.658 484.347 226.539 482.763 222.378C481.179 218.218 479.996 212.624 479.213 205.597C478.43 198.57 477.928 189.786 477.706 179.245C477.484 168.705 477.376 155.979 477.382 141.069C477.382 126.158 477.49 113.429 477.706 102.882C477.921 92.3356 478.424 83.5549 479.213 76.5403C480.002 69.5133 481.185 63.9194 482.763 59.7587C483.995 56.0915 486.238 52.8475 489.236 50.4017C492.193 48.23 495.661 46.8604 499.305 46.4259C509.022 45.2792 518.841 45.2792 528.559 46.4259C532.215 46.8542 535.697 48.2241 538.665 50.4017C541.389 52.4851 543.547 55.6041 545.137 59.7587C546.728 63.9132 547.911 69.5071 548.688 76.5403C549.47 83.5673 549.973 92.3479 550.195 102.882C550.417 113.417 550.525 126.145 550.518 141.069C550.518 155.979 550.411 168.705 550.195 179.245C549.979 189.786 549.477 198.57 548.688 205.597C547.905 212.624 546.721 218.218 545.137 222.378C543.553 226.539 541.396 229.658 538.665 231.735C535.695 233.909 532.214 235.279 528.559 235.711C523.721 236.334 518.846 236.622 513.969 236.571ZM529.456 59.9713C530.042 60.1301 530.587 60.4151 531.052 60.8064C531.516 61.1977 531.89 61.6858 532.147 62.2366C532.427 62.8167 532.872 63.3013 533.426 63.6301C533.98 63.959 534.619 64.1175 535.262 64.0858C535.752 64.1146 536.241 64.0265 536.69 63.8287C537.138 63.631 537.533 63.3293 537.842 62.9486C538.421 62.2153 538.725 61.3028 538.702 60.3689C538.681 59.4316 538.357 58.5263 537.777 57.7893C537.117 56.9144 536.357 56.12 535.512 55.4223C534.677 54.7154 533.743 54.1359 532.738 53.7025C531.93 53.3174 531.053 53.0973 530.159 53.0553C528.007 53.0553 526.932 54.2727 526.932 56.7075C526.865 57.4692 527.088 58.228 527.556 58.8328C528.024 59.4376 528.702 59.8441 529.456 59.9713Z" fill="#6D94F0" stroke="white" stroke-width="2" stroke-miterlimit="10"/>
<path d="M534.865 145.368C534.782 143.326 535.073 141.286 535.725 139.349C536.298 137.916 537.666 136.797 539.812 136.011C541.957 135.225 545.23 134.763 549.603 134.615C553.977 134.467 559.959 134.402 567.559 134.402C575.159 134.402 581.114 134.402 585.413 134.504C588.647 134.517 591.878 134.696 595.094 135.04C597.248 135.336 598.607 135.798 599.18 136.445C599.795 137.203 600.102 138.163 600.04 139.136V144.083C600.04 150.826 602.694 154.266 608.001 154.401H617.894C620.761 154.401 622.804 153.477 624.025 151.627C625.245 149.778 625.862 147.195 625.874 143.879C625.875 141.58 625.203 139.33 623.941 137.407C623.142 136.188 622.119 135.13 620.927 134.291C619.266 133.248 617.5 132.384 615.657 131.711C613.29 130.781 610.063 129.634 605.976 128.272C601.89 126.91 596.536 124.937 589.916 122.354L561.521 111.814C553.872 109.223 547.148 104.45 542.179 98.0835C537.309 91.7777 534.871 83.6751 534.865 73.7757V55.2835C534.865 40.231 539.097 28.7967 547.56 20.9807C556.023 13.1647 567.639 9.24127 582.408 9.21045H643.543C658.337 9.21045 669.95 13.1184 678.382 20.9344C686.815 28.7504 691.046 40.1847 691.077 55.2373V67.2572C691.164 69.5117 690.873 71.7649 690.217 73.9236C689.644 75.5016 688.282 76.6851 686.13 77.4741C682.991 78.4324 679.732 78.9398 676.45 78.9812C672.135 79.1908 666.184 79.2986 658.596 79.3048C651.008 79.311 645.022 79.274 640.64 79.1938C637.361 79.221 634.085 78.9704 630.848 78.4449C628.694 78.0103 627.335 77.4094 626.761 76.5957C626.13 75.6052 625.828 74.4397 625.902 73.2671V67.4976C625.902 64.206 625.285 61.6633 624.052 59.8696C622.82 58.0758 620.776 57.179 617.922 57.179H608.029C605.163 57.179 603.119 58.0758 601.899 59.8696C600.678 61.6633 600.062 64.206 600.05 67.4976C599.933 70.5422 600.76 73.5485 602.417 76.1057C603.286 77.5699 604.459 78.8309 605.856 79.8041C607.596 80.8847 609.458 81.7538 611.404 82.393C613.869 83.2498 617.062 84.2514 620.983 85.3979C624.903 86.5445 630.099 88.1964 636.572 90.3538L664.106 99.8125C668.206 101.145 672.058 103.144 675.507 105.73C678.704 108.135 681.53 110.998 683.893 114.227C688.368 120.345 690.781 127.728 690.781 135.308L690.994 145.839C691.054 153.655 690.479 161.463 689.274 169.186C688.347 175.577 685.996 181.679 682.395 187.04C678.742 192.148 673.701 196.101 667.869 198.431C661.638 201.094 653.501 202.422 643.46 202.416H582.408C567.614 202.416 555.998 198.508 547.56 190.692C539.121 182.876 534.89 171.423 534.865 156.334V145.368ZM658.762 29.6627C662.202 29.6627 664.606 30.2791 665.974 31.5119C667.221 32.5799 668.176 33.9483 668.748 35.4877C669.247 36.9209 669.672 38.2616 670.042 39.4635C670.412 40.6655 671.438 41.3127 673.158 41.3127C673.673 41.3378 674.187 41.255 674.668 41.0698C675.148 40.8845 675.585 40.6009 675.95 40.237C676.315 39.8731 676.599 39.4371 676.786 38.9568C676.972 38.4765 677.056 37.9625 677.032 37.4479C677.023 36.5343 676.876 35.6274 676.598 34.7573C676.311 33.8327 676.024 33.0005 675.738 32.2794C675.193 30.6129 674.323 29.071 673.179 27.7427C672.035 26.4143 670.639 25.3259 669.071 24.5404C665.936 22.9659 662.474 22.1549 658.965 22.1734C657.776 22.1501 656.598 22.4066 655.526 22.9223C654.518 23.4309 654.019 24.4664 654.019 26.0383C654.019 27.6101 654.518 28.6272 655.526 29.0525C656.55 29.479 657.653 29.6868 658.762 29.6627Z" fill="#6D94F0" stroke="white" stroke-width="2" stroke-miterlimit="10"/>
<path d="M734.866 99.9883C739.736 86.7973 744.146 76.5434 748.097 69.2267C752.048 61.91 756.209 56.4949 760.579 52.9814C764.869 49.505 770.05 47.3068 775.53 46.6386C782.384 45.8557 789.279 45.4975 796.177 45.5661C804.35 45.5661 810.622 46.1023 814.993 47.1749C819.363 48.2474 821.875 50.713 822.528 54.5717C823.144 58.4427 821.961 64.1414 818.978 71.6677C815.994 79.194 811.189 89.4109 804.563 102.318C799.545 112.076 794.349 121.541 788.974 130.713C783.608 139.87 777.605 148.638 771.009 156.953C770.861 175.445 770.396 190.002 769.613 200.622C768.83 211.243 767.144 219.201 764.555 224.496C761.979 229.803 758.323 233.138 753.589 234.5C748.856 235.862 742.473 236.543 734.441 236.543C726.428 236.543 720.045 235.862 715.292 234.5C710.54 233.138 706.885 229.803 704.326 224.496C701.75 219.188 700.064 211.194 699.269 200.511C698.474 189.829 698.008 175.239 697.873 156.741C691.324 148.728 685.428 140.204 680.241 131.249C674.927 122.145 669.688 112.501 664.522 102.318C657.785 89.4293 652.949 79.2217 650.015 71.6954C647.081 64.1691 645.931 58.4797 646.566 54.6272C647.214 50.7562 649.725 48.2906 654.102 47.2303C658.478 46.1701 664.753 45.6339 672.927 45.6215C679.825 45.5535 686.72 45.9117 693.573 46.6941C699.052 47.3676 704.232 49.5652 708.524 53.0369C712.901 56.5504 717.058 61.9655 720.997 69.2822C724.936 76.5989 729.346 86.8528 734.228 100.044L734.441 100.894L734.866 99.9883ZM695.108 58.8989C695.692 59.0573 696.235 59.3412 696.698 59.7308C697.161 60.1205 697.534 60.6065 697.79 61.1549C698.076 61.7186 698.518 62.1878 699.064 62.506C699.611 62.8242 700.237 62.9779 700.868 62.9486C701.352 62.983 701.837 62.9039 702.285 62.7177C702.733 62.5315 703.131 62.2433 703.448 61.8761C704.027 61.1393 704.331 60.2239 704.308 59.2872C704.289 58.3495 703.965 57.4436 703.383 56.7076C702.724 55.835 701.967 55.0408 701.127 54.3406C700.288 53.6401 699.354 53.0612 698.354 52.6208C697.541 52.2388 696.661 52.019 695.765 51.9736C693.62 51.9736 692.547 53.2064 692.547 55.672C692.493 56.4285 692.722 57.1782 693.19 57.7748C693.659 58.3714 694.333 58.7721 695.08 58.8989H695.108ZM804.378 58.8989C804.963 59.0572 805.507 59.341 805.972 59.7306C806.436 60.1202 806.811 60.6062 807.069 61.1549C807.347 61.7365 807.792 62.2225 808.346 62.5516C808.901 62.8807 809.541 63.0382 810.185 63.0041C810.667 63.0333 811.149 62.9499 811.594 62.7605C812.038 62.5712 812.433 62.2811 812.746 61.9131C813.325 61.1763 813.629 60.2609 813.606 59.3242C813.587 58.3865 813.262 57.4806 812.681 56.7445C812.024 55.8698 811.267 55.0754 810.425 54.3775C809.586 53.6771 808.652 53.0982 807.651 52.6578C806.841 52.277 805.965 52.0571 805.072 52.0106C802.914 52.0106 801.838 53.2434 801.845 55.709C801.799 56.4553 802.029 57.1925 802.491 57.7806C802.953 58.3686 803.614 58.7666 804.35 58.8989H804.378Z" fill="#6D94F0" stroke="white" stroke-width="2" stroke-miterlimit="10"/>
<path d="M275.338 363.732C275.204 371.901 274.586 380.055 273.488 388.151C272.551 394.241 270.903 398.901 268.542 402.131C266.208 405.342 262.821 407.632 258.972 408.603C253.899 409.793 248.695 410.333 243.485 410.212C235.885 410.212 229.933 409.497 225.631 408.067C221.328 406.637 218.138 403.086 216.061 397.415C213.984 391.745 212.692 383.247 212.187 371.924C211.682 360.601 211.432 345.114 211.438 325.463V235.776C211.369 233.055 211.681 230.339 212.363 227.704C212.985 225.531 214.28 223.612 216.061 222.221C218.25 220.62 220.783 219.553 223.458 219.105C227.577 218.377 231.758 218.052 235.94 218.134H285.406C301.618 218.134 314.812 219.389 324.989 221.898C335.166 224.406 343.09 228.53 348.76 234.269C354.419 240.014 358.29 247.506 360.374 256.746C362.457 265.986 363.496 277.352 363.489 290.845C363.489 304.751 362.306 316.365 359.939 325.685C357.572 335.005 353.522 342.5 347.79 348.171C342.045 353.83 334.3 357.836 324.554 360.191C314.809 362.545 302.62 363.729 287.986 363.741L275.338 363.732ZM280.072 316.623C286.661 316.623 291.105 314.833 293.404 311.251C295.704 307.67 296.841 301.287 296.816 292.103V290.17C296.816 281.855 295.599 275.999 293.164 272.603C290.729 269.207 286.285 267.521 279.831 267.545H275.55V316.549L280.072 316.623ZM326.302 238.54C332.028 241.413 335.97 244.569 338.128 248.008C338.406 248.52 338.79 248.966 339.254 249.318C339.718 249.67 340.251 249.92 340.818 250.052C341.752 250.279 342.736 250.165 343.592 249.728C343.995 249.5 344.348 249.191 344.626 248.82C344.904 248.449 345.103 248.025 345.21 247.574C345.328 246.973 345.312 246.353 345.164 245.758C345.015 245.164 344.737 244.609 344.35 244.134C342.623 241.258 340.4 238.71 337.785 236.608C335.395 234.625 332.756 232.962 329.936 231.661C328.768 231.225 327.53 231.005 326.283 231.014C325.672 231 325.068 231.153 324.537 231.456C324.006 231.759 323.568 232.201 323.269 232.734C322.412 234.312 322.412 235.545 323.269 236.432C324.161 237.301 325.192 238.014 326.32 238.54H326.302Z" fill="#6D94F0" stroke="white" stroke-width="2" stroke-miterlimit="10"/>
<path d="M388.445 378.572C387.3 385.26 385.611 391.843 383.396 398.257C381.596 403.052 379.408 406.708 376.831 409.223C374.154 411.776 370.748 413.43 367.086 413.957C362.188 414.672 357.242 414.996 352.292 414.927C347.958 414.975 343.627 414.651 339.348 413.957C336.003 413.464 332.888 411.964 330.416 409.657C328.123 407.426 326.545 404.236 325.682 400.088C324.819 395.939 324.604 390.274 325.035 383.093C325.467 375.918 326.545 367.027 328.271 356.418C329.997 345.81 332.42 333.051 335.539 318.14C338.682 303.075 341.515 290.241 344.036 279.639C346.079 270.59 348.698 261.68 351.876 252.964C354.619 245.796 357.532 240.165 360.614 236.072C363.53 232.128 367.33 228.924 371.709 226.715C376.435 224.445 381.537 223.059 386.762 222.628C392.494 222.055 399.306 221.768 407.196 221.768C415.086 221.768 421.897 222.055 427.629 222.628C432.858 223.058 437.963 224.443 442.691 226.715C447.069 228.926 450.868 232.13 453.786 236.072C456.868 240.159 459.772 245.786 462.496 252.955C465.691 261.676 468.349 270.584 470.457 279.63C473.034 290.244 475.903 303.078 479.065 318.131C482.221 333.041 484.687 345.804 486.462 356.418C488.043 365.242 489.12 374.148 489.689 383.093C490.053 390.262 489.803 395.927 488.94 400.088C488.077 404.248 486.45 407.444 484.058 409.676C481.538 411.97 478.395 413.467 475.025 413.975C470.724 414.673 466.372 414.998 462.015 414.946C457.048 415.02 452.082 414.695 447.166 413.975C443.529 413.439 440.149 411.785 437.495 409.241C434.906 406.739 432.749 403.083 431.023 398.275C428.884 391.847 427.23 385.267 426.076 378.59C423.2 378.738 420.159 378.803 416.932 378.803H397.053C394.038 378.785 391.172 378.72 388.445 378.572ZM406.521 329.318H412.216C414.01 329.318 415.838 329.389 417.699 329.531C415.979 319.2 414.583 311.168 413.511 305.436C412.438 299.703 411.532 295.478 410.82 292.75C410.108 290.023 409.452 288.377 408.888 287.803C408.67 287.553 408.406 287.349 408.109 287.201C407.812 287.053 407.489 286.966 407.159 286.944C406.795 286.948 406.436 287.026 406.104 287.174C405.771 287.322 405.473 287.536 405.226 287.803C404.653 288.377 404.009 289.989 403.294 292.639C402.579 295.29 401.716 299.475 400.705 305.195C399.706 310.94 398.347 318.972 396.627 329.29L406.521 329.318ZM433.833 242.202C435.205 242.189 436.565 242.448 437.835 242.966C439.105 243.483 440.259 244.248 441.23 245.216C443.301 247.219 444.556 249.069 444.993 250.764C445.091 251.277 445.31 251.759 445.631 252.171C445.953 252.583 446.368 252.912 446.843 253.131C447.379 253.342 447.955 253.432 448.531 253.395C449.106 253.358 449.666 253.195 450.171 252.918C450.669 252.72 451.108 252.399 451.448 251.985C451.787 251.571 452.016 251.078 452.113 250.551C452.264 249.687 452.188 248.797 451.891 247.971C450.548 244.134 448.167 240.744 445.012 238.18C441.871 235.77 437.995 234.516 434.037 234.629C432.847 234.61 431.669 234.87 430.597 235.388C429.589 235.887 429.09 236.932 429.09 238.503C429.09 240.075 429.589 241.092 430.597 241.518C431.618 241.964 432.719 242.197 433.833 242.202Z" fill="#6D94F0" stroke="white" stroke-width="2" stroke-miterlimit="10"/>
<path d="M505.648 389.048C500.755 389.089 495.865 388.839 491.002 388.299C487.289 387.92 483.706 386.726 480.508 384.804C477.432 382.767 474.981 379.919 473.425 376.575C471.252 371.875 469.665 366.925 468.7 361.837C467.157 354.197 466.021 346.481 465.298 338.721C464.355 329.475 463.378 318.294 462.367 305.177C461.356 292.06 460.57 280.878 460.009 271.632C459.436 262.386 459.183 254.681 459.251 248.517C459.19 243.572 459.633 238.634 460.573 233.779C461.387 230.123 462.678 227.384 464.447 225.559C466.282 223.693 468.668 222.465 471.252 222.055C474.614 221.51 478.017 221.26 481.423 221.306C487.47 221.306 492.226 221.777 495.69 222.72C499.154 223.664 501.863 226.058 503.817 229.905C505.771 233.751 507.22 239.545 508.163 247.287C509.106 255.029 510.03 265.644 510.936 279.131C511.812 292.741 512.505 303.389 513.017 311.076C513.528 318.762 513.938 324.557 514.247 328.458C514.561 332.373 514.78 334.798 514.903 335.735C515.032 336.66 515.217 337.15 515.476 337.15C515.735 337.15 515.754 336.678 515.948 335.735C516.142 334.792 516.382 332.369 516.706 328.458C517.03 324.547 517.455 318.759 518.028 311.076C518.601 303.392 519.378 292.741 520.386 279.131C521.394 265.52 522.235 255.035 523.224 247.287C524.214 239.539 525.712 233.751 527.663 229.905C529.613 226.058 532.36 223.664 535.882 222.72C545.365 220.834 555.127 220.834 564.61 222.72C568.136 223.664 570.876 226.058 572.83 229.905C574.784 233.751 576.266 239.545 577.277 247.287C578.282 255.035 579.289 265.65 580.3 279.131C581.163 292.692 581.903 303.315 582.519 311.002C583.136 318.688 583.577 324.483 583.842 328.384C584.156 332.299 584.375 334.724 584.498 335.661C584.628 336.586 584.812 337.076 585.071 337.076C585.188 337.076 585.346 336.604 585.543 335.661C585.74 334.718 585.993 332.292 586.301 328.384C586.615 324.483 587.022 318.688 587.521 311.002C588.021 303.315 588.714 292.667 589.602 279.057C590.477 265.576 591.402 254.961 592.376 247.213C593.35 239.465 594.798 233.671 596.721 229.831C598.669 225.984 601.378 223.59 604.849 222.646C608.319 221.703 613.075 221.232 619.115 221.232C622.521 221.187 625.924 221.437 629.286 221.981C631.867 222.393 634.249 223.621 636.082 225.485C637.845 227.334 639.139 230.074 639.965 233.705C640.896 238.561 641.339 243.498 641.287 248.443C641.343 254.607 641.09 262.312 640.529 271.558C639.968 280.804 639.179 291.986 638.162 305.103C637.127 318.232 636.147 329.426 635.222 338.684C634.494 346.444 633.358 354.16 631.819 361.8C630.851 366.887 629.264 371.836 627.095 376.538C625.548 379.863 623.129 382.707 620.095 384.767C616.939 386.7 613.386 387.895 609.703 388.262C604.84 388.802 599.95 389.052 595.057 389.011C588.258 389.118 581.461 388.741 574.716 387.883C569.729 387.125 565.917 385.235 563.278 382.215C560.64 379.195 558.791 374.658 557.731 368.605C556.658 362.558 555.681 354.236 554.8 343.64C553.918 333.044 553.225 324.723 552.719 318.676C552.22 312.629 551.813 308.123 551.499 305.158C551.185 302.193 550.932 300.344 550.741 299.611C550.547 298.852 550.389 298.483 550.269 298.483C550.149 298.483 549.825 298.852 549.696 299.611C549.566 300.369 549.354 302.227 549.039 305.158C548.725 308.089 548.346 312.629 547.902 318.676C547.458 324.723 546.802 333.035 545.924 343.64C545.045 354.246 544.074 362.539 542.9 368.605C541.726 374.67 539.867 379.182 537.223 382.215C534.579 385.248 530.751 387.125 525.887 387.883C519.177 388.755 512.413 389.144 505.648 389.048ZM489.772 231.227C489.835 231.843 490.027 232.439 490.336 232.976C490.645 233.513 491.065 233.979 491.566 234.343C492.435 235.266 493.613 235.839 494.876 235.952C495.313 235.978 495.75 235.909 496.157 235.75C496.564 235.59 496.932 235.343 497.234 235.027C497.823 234.347 498.127 233.466 498.084 232.567C498.052 231.94 497.882 231.327 497.589 230.771C497.295 230.215 496.883 229.73 496.383 229.35C495.533 228.473 494.392 227.937 493.175 227.843C492.722 227.819 492.269 227.89 491.845 228.053C491.421 228.215 491.036 228.465 490.716 228.786C490.395 229.107 490.145 229.492 489.982 229.915C489.82 230.339 489.748 230.792 489.772 231.245V231.227ZM559.885 231.227C559.948 231.843 560.14 232.439 560.449 232.976C560.758 233.513 561.177 233.979 561.679 234.343C562.55 235.263 563.727 235.835 564.989 235.952C565.427 235.977 565.865 235.908 566.274 235.748C566.682 235.589 567.051 235.343 567.356 235.027C567.937 234.343 568.238 233.464 568.197 232.567C568.164 231.941 567.996 231.329 567.704 230.773C567.412 230.218 567.003 229.732 566.505 229.35C565.65 228.475 564.507 227.939 563.288 227.843C562.834 227.819 562.381 227.89 561.958 228.053C561.534 228.215 561.149 228.465 560.828 228.786C560.507 229.107 560.258 229.492 560.095 229.915C559.933 230.339 559.861 230.792 559.885 231.245V231.227ZM624.709 231.227C624.772 231.843 624.964 232.439 625.273 232.976C625.582 233.513 626.001 233.979 626.503 234.343C627.374 235.263 628.551 235.835 629.813 235.952C630.251 235.977 630.689 235.908 631.098 235.748C631.506 235.589 631.875 235.343 632.18 235.027C632.761 234.343 633.062 233.464 633.021 232.567C632.988 231.94 632.819 231.327 632.525 230.771C632.232 230.215 631.82 229.73 631.32 229.35C630.47 228.473 629.329 227.937 628.112 227.843C627.659 227.819 627.205 227.89 626.782 228.053C626.358 228.215 625.973 228.465 625.652 228.786C625.332 229.107 625.082 229.492 624.919 229.915C624.757 230.339 624.685 230.792 624.709 231.245V231.227Z" fill="#6D94F0" stroke="white" stroke-width="2" stroke-miterlimit="10"/>
<path d="M616.129 363.445C616.049 361.563 616.319 359.682 616.924 357.898C617.442 356.579 618.696 355.555 620.687 354.828C623.611 353.953 626.65 353.519 629.702 353.543C633.727 353.407 639.238 353.339 646.234 353.339C653.23 353.339 658.713 353.373 662.683 353.441C665.66 353.449 668.635 353.613 671.596 353.931C673.575 354.199 674.823 354.625 675.359 355.226C675.922 355.924 676.202 356.808 676.145 357.704V362.253C676.145 368.466 678.589 371.637 683.477 371.767H692.594C695.229 371.767 697.115 370.907 698.234 369.187C699.469 367.023 700.054 364.547 699.917 362.059C699.916 359.946 699.299 357.88 698.141 356.113C697.405 354.989 696.464 354.014 695.367 353.238C693.836 352.279 692.21 351.483 690.513 350.862C688.331 350.011 685.36 348.954 681.6 347.69C677.84 346.426 672.909 344.611 666.806 342.244L640.659 332.545C633.602 330.149 627.402 325.739 622.823 319.859C618.342 314.053 616.098 306.591 616.092 297.475V280.471C616.092 266.602 619.987 256.068 627.779 248.868C635.57 241.669 646.268 238.072 659.872 238.078H716.125C729.729 238.078 740.427 241.675 748.218 248.868C756.009 256.062 759.905 266.596 759.905 280.471V291.567C759.981 293.642 759.715 295.716 759.119 297.706C758.775 298.498 758.257 299.202 757.604 299.767C756.952 300.332 756.18 300.743 755.347 300.97C752.456 301.853 749.455 302.32 746.433 302.357C742.476 302.56 736.996 302.659 729.994 302.653C722.992 302.646 717.478 302.616 713.453 302.56C710.434 302.58 707.418 302.348 704.438 301.867C702.459 301.469 701.202 300.942 700.675 300.175C700.093 299.261 699.815 298.186 699.88 297.105V291.761C699.88 288.719 699.316 286.38 698.197 284.724C697.078 283.069 695.192 282.256 692.557 282.256H683.44C680.796 282.256 678.916 283.079 677.8 284.724C676.672 286.38 676.108 288.719 676.108 291.761C676.004 294.563 676.766 297.33 678.29 299.685C679.1 301.016 680.181 302.162 681.461 303.05C683.076 304.047 684.805 304.845 686.611 305.426C688.855 306.222 691.795 307.146 695.432 308.2C699.069 309.254 703.855 310.774 709.791 312.759L735.144 321.478C738.921 322.703 742.469 324.543 745.648 326.923C748.587 329.142 751.188 331.777 753.368 334.746C757.49 340.38 759.712 347.181 759.711 354.162L759.905 363.862C759.96 371.058 759.431 378.247 758.324 385.359C757.468 391.244 755.3 396.863 751.981 401.798C748.619 406.505 743.98 410.15 738.611 412.302C732.866 414.767 725.371 416 716.125 416H659.909C646.299 416 635.601 412.403 627.816 405.21C620.031 398.016 616.135 387.485 616.129 373.616V363.445ZM730.225 256.866C733.393 256.866 735.606 257.427 736.864 258.549C738.023 259.543 738.911 260.816 739.443 262.247C739.896 263.569 740.294 264.79 740.627 265.946C740.96 267.101 741.912 267.629 743.502 267.629C743.977 267.654 744.452 267.579 744.895 267.409C745.339 267.239 745.742 266.978 746.079 266.643C746.415 266.307 746.677 265.904 746.848 265.461C747.019 265.018 747.095 264.543 747.071 264.069C747.061 263.228 746.927 262.393 746.674 261.591C746.406 260.731 746.147 259.973 745.879 259.307C745.376 257.773 744.574 256.353 743.521 255.13C742.467 253.906 741.182 252.903 739.739 252.178C736.862 250.722 733.682 249.961 730.456 249.959C729.359 249.938 728.273 250.176 727.285 250.653C726.36 251.115 725.898 252.077 725.898 253.528C725.898 254.98 726.36 255.905 727.285 256.302C728.214 256.698 729.215 256.899 730.225 256.894V256.866Z" fill="#6D94F0" stroke="white" stroke-width="2" stroke-miterlimit="10"/>
<path d="M84.6743 106.978C84.6743 106.978 52.3686 32.4366 128.621 21.8129C204.873 11.1892 175.84 91.6946 175.84 91.6946C175.84 91.6946 237.068 48.5895 259.157 96.0957C281.245 143.602 222.246 156.667 222.246 156.667C222.246 156.667 270.206 213.16 237.539 248.378C204.873 283.596 156.174 248.378 156.174 248.378C156.174 248.378 134.557 291.936 98.4324 276.32C62.3081 260.703 75.1046 215.897 75.1046 215.897C75.1046 215.897 -7.69382 218.079 0.5814 152.839C8.85662 87.5986 84.6743 106.978 84.6743 106.978Z" fill="white"/>
<path d="M142.767 197.053C162.539 197.053 178.568 181.025 178.568 161.253C178.568 141.48 162.539 125.452 142.767 125.452C122.995 125.452 106.966 141.48 106.966 161.253C106.966 181.025 122.995 197.053 142.767 197.053Z" fill="#FCE1AC"/>
</svg>
