<svg width="103" height="103" viewBox="0 0 103 103" fill="none" xmlns="http://www.w3.org/2000/svg">
<path d="M46.4694 100.62C70.9583 100.62 90.8104 78.4774 90.8104 51.1629C90.8104 23.8483 70.9583 1.70557 46.4694 1.70557C21.9806 1.70557 2.12842 23.8483 2.12842 51.1629C2.12842 78.4774 21.9806 100.62 46.4694 100.62Z" fill="#FFDD95" stroke="#FFAF40" stroke-width="3" stroke-linecap="round"/>
<path d="M36.2368 10.2324H22.4872M34.5313 90.3873H20.7818M27.7096 18.7595H13.9601M22.5934 28.9921H8.84381M26.0042 80.1548H12.2547M19.1825 40.9301H5.43296M19.1825 68.2168H5.43296M17.4771 54.5734H3.72754" stroke="#FFAF40" stroke-width="3" stroke-linecap="square"/>
<path d="M58.4074 102.325C82.8963 102.325 102.748 79.4191 102.748 51.1627C102.748 22.9063 82.8963 0 58.4074 0C33.9186 0 14.0664 22.9063 14.0664 51.1627C14.0664 79.4191 33.9186 102.325 58.4074 102.325Z" fill="#FFAF40"/>
<path d="M58.4074 88.6822C76.3032 88.6822 90.8105 71.8842 90.8105 51.1629C90.8105 30.4415 76.3032 13.6436 58.4074 13.6436C40.5117 13.6436 26.0044 30.4415 26.0044 51.1629C26.0044 71.8842 40.5117 88.6822 58.4074 88.6822Z" stroke="#FFDD95" stroke-width="3" stroke-linecap="round" stroke-dasharray="5.85 20.47"/>
</svg>
