<svg width="30" height="30" viewBox="0 0 30 30" fill="none" xmlns="http://www.w3.org/2000/svg">
<path d="M15 30C23.2843 30 30 23.2843 30 15C30 6.71573 23.2843 0 15 0C6.71573 0 0 6.71573 0 15C0 23.2843 6.71573 30 15 30Z" fill="#626262"/>
<path fill-rule="evenodd" clip-rule="evenodd" d="M17.02 8.50212C17.02 8.50212 14.7935 8.35667 14.2227 10.4745C14.2227 10.4745 14.016 11.0301 14.0444 12.3987L12 12.4046V14.1949L14.0444 14.189V21.5H16.6504V14.1949L18.7172 14.1949V12.3987L16.6504 12.3987V11.423C16.6504 10.7905 17.0018 10.1856 18.0296 10.1856H19V8.50212H17.02Z" fill="white"/>
</svg>
