<svg width="265" height="259" viewBox="0 0 265 259" fill="none" xmlns="http://www.w3.org/2000/svg">
<path d="M84.6743 86.1314C84.6743 86.1314 52.3686 11.5897 128.621 0.966018C204.873 -9.6577 175.84 70.8477 175.84 70.8477C175.84 70.8477 237.068 27.7426 259.157 75.2488C281.245 122.755 222.246 135.82 222.246 135.82C222.246 135.82 270.206 192.313 237.539 227.531C204.873 262.75 156.174 227.531 156.174 227.531C156.174 227.531 134.557 271.09 98.4324 255.473C62.3081 239.856 75.1046 195.05 75.1046 195.05C75.1046 195.05 -7.69382 197.232 0.5814 131.992C8.85662 66.7517 84.6743 86.1314 84.6743 86.1314Z" fill="white"/>
<path d="M142.767 176.206C162.539 176.206 178.568 160.178 178.568 140.406C178.568 120.634 162.539 104.605 142.767 104.605C122.995 104.605 106.966 120.634 106.966 140.406C106.966 160.178 122.995 176.206 142.767 176.206Z" fill="#FCE1AC"/>
</svg>
