<svg width="78" height="24" viewBox="0 0 78 24" fill="none" xmlns="http://www.w3.org/2000/svg">
<path d="M16.4081 12.9563C16.4081 10.0658 18.8546 8.68274 18.919 8.61987C17.568 6.67237 15.3784 6.36488 14.67 6.36488C12.8675 6.17628 11.1294 7.43293 10.2278 7.43293C9.26183 7.43293 7.91782 6.42842 6.36522 6.42842C4.43322 6.42842 2.56703 7.55934 1.60103 9.25606C-0.523474 12.7752 1.02142 17.9344 3.01712 20.7566C3.98312 22.139 5.14162 23.7099 6.68652 23.6471C8.16702 23.5842 8.74663 22.7041 10.5491 22.7041C12.3516 22.7041 12.8591 23.6471 14.4117 23.5842C16.0217 23.5842 16.9877 22.2018 17.9523 20.8187C19.1108 19.2471 19.5623 17.6768 19.5623 17.551C19.4979 17.551 16.4725 16.4201 16.4081 12.9631V12.9563ZM13.5115 4.47204C14.2843 3.46754 14.8625 2.14666 14.7344 0.827148C13.5759 0.890015 12.1584 1.58154 11.3226 2.58672C10.6142 3.40399 9.90653 4.78707 10.0997 6.1059C11.3226 6.16877 12.6757 5.41435 13.5115 4.46589V4.47204ZM30.3325 19.519H28.7925L27.9224 16.8773H24.9824L24.1606 19.519H22.6626L25.6026 10.6036H27.4387L30.3325 19.519ZM27.6263 15.84L26.8535 13.5283C26.7569 13.2925 26.612 12.726 26.3635 11.8302H26.3145L25.8805 13.5283L25.1077 15.84H27.6263ZM37.8708 16.2636C37.8708 17.3488 37.581 18.2453 36.9524 18.8583C36.4204 19.4241 35.7442 19.7076 34.9224 19.7076C34.0523 19.7076 33.4244 19.4247 33.038 18.8111V22.2073H31.589V15.2257L31.54 13.1032H32.8448L32.9414 14.1419H32.9904C33.4804 13.3875 34.1986 13.0096 35.2129 13.0096C35.9857 13.0096 36.6619 13.2925 37.1449 13.9061C37.6349 14.4719 37.8694 15.2742 37.8694 16.265L37.8708 16.2636ZM36.3728 16.3115C36.3728 15.6985 36.2279 15.1792 35.9388 14.7548C35.6007 14.3312 35.2143 14.1419 34.6823 14.1419C34.3442 14.1419 34.0061 14.2833 33.7163 14.4719C33.4131 14.7079 33.2073 15.0427 33.1367 15.4149C33.0877 15.5564 33.0401 15.6978 33.0401 15.8386V16.9237C33.0272 17.3563 33.1822 17.7775 33.4741 18.1032C33.7632 18.4332 34.1503 18.5815 34.634 18.5815C35.166 18.5815 35.6 18.3929 35.9388 17.9686C36.2286 17.5449 36.3728 16.9777 36.3728 16.3176V16.3115ZM45.4574 16.2636C45.4574 17.3488 45.1676 18.2453 44.539 18.8583C44.007 19.4241 43.3308 19.7076 42.509 19.7076C41.6389 19.7076 41.011 19.4247 40.6246 18.8111H40.5756V22.2073H39.1266V15.2257L39.0776 13.1032H40.3824L40.479 14.1419H40.528C41.018 13.3875 41.7362 13.0096 42.7505 13.0096C43.5233 13.0096 44.1995 13.2925 44.6825 13.9061C45.2145 14.4719 45.4553 15.2742 45.4553 16.265L45.4574 16.2636ZM43.9594 16.3115C43.9594 15.6985 43.8145 15.1792 43.5254 14.7548C43.1873 14.3312 42.8009 14.1419 42.2689 14.1419C41.9308 14.1419 41.5927 14.2833 41.3029 14.4719C40.9997 14.7079 40.7939 15.0427 40.7233 15.4149C40.6743 15.6035 40.6743 15.745 40.6743 15.8386V16.9237C40.6614 17.3563 40.8164 17.7775 41.1083 18.1032C41.3974 18.4332 41.7845 18.5815 42.2682 18.5815C42.8002 18.5815 43.2342 18.3929 43.573 17.9686C43.8145 17.5449 43.9594 16.9777 43.9594 16.3176V16.3115ZM53.9134 17.018C53.9134 17.7724 53.6236 18.3861 53.0916 18.8576C52.512 19.3769 51.6902 19.6598 50.5716 19.6598C49.6056 19.6598 48.7838 19.4712 48.2035 19.094L48.5416 17.9146C49.1695 18.2918 49.8947 18.4804 50.6675 18.4804C51.1995 18.4804 51.6335 18.3389 51.9723 18.1032C52.2621 17.8674 52.4623 17.5374 52.4623 17.1123C52.465 16.9449 52.432 16.7788 52.3655 16.6245C52.299 16.4702 52.2004 16.331 52.0759 16.2158C51.8344 15.9794 51.3997 15.7375 50.8194 15.5086C49.2248 14.9428 48.403 14.0941 48.403 12.9611C48.3952 12.6215 48.4649 12.2845 48.607 11.9745C48.7492 11.6645 48.9602 11.3892 49.2248 11.1687C49.8044 10.6904 50.5296 10.4615 51.4473 10.4615C52.2691 10.4615 52.9873 10.6029 53.5249 10.8851L53.1385 12.0646C52.6049 11.7815 52.0063 11.6357 51.399 11.6409C50.867 11.6409 50.4806 11.7823 50.1908 12.0181C49.9493 12.2538 49.8044 12.4964 49.8044 12.8203C49.8046 12.9918 49.8437 13.1612 49.9188 13.3162C49.994 13.4712 50.1034 13.608 50.2391 13.7169C50.4806 13.9055 50.9153 14.1405 51.5922 14.4241C52.365 14.7541 52.9453 15.0842 53.3317 15.5092C53.7657 15.8864 53.9113 16.4058 53.9113 17.0126L53.9134 17.018ZM58.7938 14.189H57.1992V17.3023C57.1992 18.1045 57.489 18.4817 58.0693 18.4817C58.3108 18.4817 58.5593 18.4817 58.6972 18.4339L58.7462 19.519C58.4564 19.6133 58.07 19.6605 57.5863 19.6605C57.0067 19.6605 56.5713 19.4719 56.2332 19.1412C55.8951 18.8104 55.7432 18.1982 55.7432 17.3959V14.148H54.7772V13.0629H55.7432V11.9306L57.1922 11.507V13.1107H58.7868L58.7938 14.189ZM66.0423 16.2636C66.0423 17.2545 65.7525 18.056 65.1722 18.7236C64.5443 19.3837 63.7708 19.7145 62.7558 19.7145C61.7898 19.7145 61.0163 19.3844 60.4367 18.7715C59.8571 18.1585 59.5666 17.357 59.5666 16.4126C59.5666 15.4218 59.8564 14.6202 60.4367 13.9526C61.0163 13.3397 61.8381 13.0096 62.8531 13.0096C63.8191 13.0096 64.5926 13.3397 65.1722 13.9526C65.8001 14.5184 66.0423 15.32 66.0423 16.2636ZM64.5443 16.3115C64.5548 15.7838 64.4214 15.2629 64.1579 14.802C63.8681 14.2827 63.4334 14.0476 62.8531 14.0476C62.2728 14.0476 61.8381 14.2833 61.5 14.802C61.2585 15.2257 61.1136 15.745 61.1136 16.3586C61.1032 16.8863 61.2365 17.4072 61.5 17.8681C61.8381 18.3874 62.2728 18.6225 62.8531 18.6225C63.4334 18.6225 63.8681 18.3396 64.1579 17.8203C64.3994 17.4431 64.5443 16.9237 64.5443 16.3169V16.3115ZM70.8261 14.3776C70.6812 14.3298 70.5363 14.3298 70.3361 14.3298C69.8041 14.3298 69.4177 14.5184 69.1279 14.8956C68.8864 15.2257 68.7415 15.65 68.7415 16.1693V19.5655H67.2925V15.1785L67.2435 13.1504H68.5L68.549 14.3769H68.598C68.735 13.9715 68.986 13.6118 69.3225 13.339C69.6606 13.1032 69.9987 13.0089 70.3865 13.0089C70.5314 13.0089 70.628 13.0089 70.7729 13.0568L70.8261 14.3776ZM77.3501 16.0279C77.3501 16.2636 77.3501 16.5062 77.3011 16.688H72.9037C72.9037 17.3009 73.1452 17.8203 73.5316 18.1503C73.9484 18.4592 74.458 18.625 74.9813 18.6218C75.6092 18.6218 76.2378 18.5275 76.7691 18.3389L77.0106 19.3298C76.3827 19.6127 75.6575 19.707 74.7881 19.707C73.7731 19.707 72.952 19.4241 72.3717 18.8104C71.7921 18.2446 71.5016 17.4424 71.5016 16.4516C71.5016 15.4607 71.7914 14.6592 72.3234 14.0462C72.903 13.339 73.6765 13.0076 74.6425 13.0076C75.6085 13.0076 76.3337 13.3376 76.8167 14.0462C77.1548 14.5246 77.3487 15.2257 77.3487 16.0279H77.3501ZM75.997 15.6507C75.997 15.227 75.9004 14.8484 75.7072 14.5655C75.4657 14.1883 75.0793 13.9526 74.5473 13.9526C74.0573 13.9526 73.6772 14.1412 73.3874 14.5184C73.1459 14.8484 73.001 15.1785 72.9534 15.6507H75.997Z" fill="#626262"/>
</svg>
