<svg width="99" height="18" viewBox="0 0 99 18" fill="none" xmlns="http://www.w3.org/2000/svg">
<g clip-path="url(#clip0_105_918)">
<path opacity="0.54" d="M42.9165 6.30621C40.666 6.30621 38.8358 7.93512 38.8358 10.1847C38.8358 12.4212 40.666 14.0632 42.9165 14.0632C45.1671 14.0632 46.9972 12.423 46.9972 10.1847C46.9972 7.9463 45.169 6.30621 42.9165 6.30621ZM42.9165 12.5367C41.6886 12.5367 40.6171 11.5611 40.6171 10.1847C40.6171 8.78499 41.6759 7.83263 42.9165 7.83263C44.1571 7.83263 45.2159 8.78499 45.2159 10.1847C45.2042 11.5611 44.1444 12.5367 42.9165 12.5367ZM53.8466 7.17845H53.788C53.391 6.71997 52.6207 6.30621 51.645 6.30621C49.6115 6.30621 47.7344 8.01622 47.7344 10.1959C47.7344 12.3644 49.5997 14.0632 51.645 14.0632C52.6197 14.0632 53.3901 13.6503 53.788 13.1797H53.8466V13.7417C53.8466 15.2215 53.0156 16.0136 51.6802 16.0136C50.5852 16.0136 49.9204 15.2681 49.6339 14.6372L48.0814 15.2569C48.5272 16.2894 49.718 17.5512 51.6929 17.5512C53.787 17.5512 55.5565 16.3807 55.5565 13.5124V6.54757H53.8593L53.8466 7.17845ZM51.8004 12.5367C50.5725 12.5367 49.5371 11.549 49.5371 10.1959C49.5371 8.83068 50.5735 7.83263 51.8004 7.83263C53.0166 7.83263 53.9669 8.82974 53.9669 10.1959C53.9669 11.562 53.0156 12.5367 51.8004 12.5367ZM34.0091 6.30621C31.7586 6.30621 29.9284 7.93512 29.9284 10.1847C29.9284 12.4212 31.7566 14.0632 34.0091 14.0632C36.2617 14.0632 38.0899 12.423 38.0899 10.1847C38.0899 7.9463 36.2617 6.30621 34.0091 6.30621ZM34.0091 12.5367C32.7812 12.5367 31.7097 11.5611 31.7097 10.1847C31.7097 8.78499 32.7685 7.83263 34.0091 7.83263C35.2371 7.83263 36.3086 8.78499 36.3086 10.1847C36.2968 11.5611 35.2371 12.5367 34.0091 12.5367ZM23.4046 7.48877V9.12886H27.5332C27.4129 10.0579 27.0874 10.7354 26.5947 11.207C25.9924 11.781 25.0539 12.4119 23.4046 12.4119C20.8647 12.4119 18.8781 10.4614 18.8781 8.03204C18.8781 5.60263 20.8647 3.65223 23.4046 3.65223C24.7772 3.65223 25.7764 4.16847 26.5331 4.82265L27.7493 3.66341C26.713 2.73153 25.3423 2 23.4163 2C19.9378 2 17 4.70803 17 8.02365C17 11.3393 19.9251 14.0473 23.4163 14.0473C25.2934 14.0473 26.7149 13.4621 27.8216 12.3699C28.9654 11.2796 29.3145 9.75415 29.3145 8.52593C29.3164 8.17958 29.2836 7.83387 29.2167 7.49344L23.4046 7.48877ZM66.7389 8.7934C66.4016 7.92116 65.3663 6.32671 63.2604 6.32671C61.1663 6.32671 59.4202 7.89878 59.4202 10.2052C59.4202 12.3737 61.1409 14.0837 63.453 14.0837C65.3184 14.0837 66.4026 12.9934 66.8474 12.3625L65.463 11.4791C65.0055 12.1314 64.3681 12.5461 63.4647 12.5461C62.5614 12.5461 61.9122 12.1454 61.4899 11.3756L66.9305 9.23044L66.7389 8.7934ZM61.2015 10.0794C61.1526 8.57627 62.4177 7.81866 63.3327 7.81866C64.0425 7.81866 64.6448 8.15133 64.8383 8.64429L61.2015 10.0794ZM56.7727 13.8423H58.554V2.44916H56.7727V13.8423ZM75.1173 2.44916H70.845V13.8423H72.6263V9.52771H75.1193C77.0941 9.52771 79.0436 8.16252 79.0436 5.98192C79.0436 3.81344 77.0932 2.44825 75.1193 2.44825L75.1173 2.44916ZM75.1662 7.92209H72.6263V4.02125H75.1662C76.5027 4.02125 77.2603 5.07705 77.2603 5.97166C77.2603 6.86626 76.5017 7.92209 75.1662 7.92209ZM80.029 13.8423H81.8103V2.44916H80.029V13.8423ZM86.1921 6.29225C84.9046 6.29225 83.5564 6.83273 83.0021 8.03485L84.5908 8.66574C84.928 8.03485 85.5537 7.82702 86.2156 7.82702C87.1424 7.82702 88.081 8.35448 88.0927 9.29568V9.41029C87.7681 9.23789 87.0818 8.97418 86.2273 8.97418C84.5184 8.97418 82.786 9.86878 82.786 11.5443C82.786 13.0707 84.1821 14.0454 85.7581 14.0454C86.9606 14.0454 87.6234 13.5292 88.0331 12.9328H88.0917V13.8162H89.8124V9.4364C89.8241 7.41702 88.2354 6.28104 86.1892 6.28104L86.1921 6.29225ZM85.9751 12.5358C85.3856 12.5358 84.579 12.2609 84.579 11.5723C84.579 10.6888 85.5899 10.3562 86.4688 10.3562C87.2509 10.3562 87.6244 10.5164 88.0937 10.7345C88.0303 11.2288 87.7803 11.6842 87.3905 12.0156C87.0006 12.3471 86.4975 12.532 85.9751 12.5358ZM96.0987 6.53451L94.0525 11.48H93.9938L91.8752 6.53451H89.9492L93.1266 13.4416L91.3082 17.2968H93.1735L98.0843 6.54569H96.0977L96.0987 6.53451Z" fill="black"/>
<path d="M13.222 9.37429C14.259 8.76429 14.259 7.23729 13.222 6.62629L10.528 5.04029L7.32 8.00029L10.527 10.9603L13.221 9.37429H13.222ZM9.627 11.4903L6.583 8.68029L0.03 14.7303C0.231 15.7593 1.39 16.3403 2.333 15.7853L9.627 11.4903ZM0 13.3963V2.60329L5.846 8.00029L0 13.3963ZM0.03 1.27029L6.583 7.32029L9.627 4.51029L2.333 0.215288C1.39 -0.340712 0.231 0.240288 0.03 1.27029Z" fill="#626262"/>
</g>
<defs>
<clipPath id="clip0_105_918">
<rect width="99" height="18.0003" fill="white"/>
</clipPath>
</defs>
</svg>
