<svg width="101" height="112" viewBox="0 0 101 112" fill="none" xmlns="http://www.w3.org/2000/svg">
<path fill-rule="evenodd" clip-rule="evenodd" d="M0.0253906 31.7568H100.642V84.0093C100.642 98.965 88.5051 111.089 73.5461 111.089H0.0253906V31.7568Z" fill="#B4DFFB"/>
<path fill-rule="evenodd" clip-rule="evenodd" d="M73.5528 10.4727H100.642V37.5617H0.0253906V10.4727H29.0494V20.1628C29.0494 22.2754 30.7862 24.0172 32.9287 24.0172H34.8447C36.9944 24.0172 38.724 22.2915 38.724 20.1628V10.4727H63.8781V20.1628C63.8781 22.2754 65.615 24.0172 67.7574 24.0172H69.6735C71.8231 24.0172 73.5528 22.2915 73.5528 20.1628V10.4727Z" fill="#80D25B"/>
<path d="M36.7882 3.70025C36.7882 2.0973 35.4887 0.797852 33.8858 0.797852C32.2828 0.797852 30.9834 2.0973 30.9834 3.70025V19.1797C30.9834 20.7826 32.2828 22.0821 33.8858 22.0821C35.4887 22.0821 36.7882 20.7826 36.7882 19.1797V3.70025Z" fill="#9F5757"/>
<path d="M71.6168 3.70025C71.6168 2.0973 70.3174 0.797852 68.7144 0.797852C67.1115 0.797852 65.812 2.0973 65.812 3.70025V19.1797C65.812 20.7826 67.1115 22.0821 68.7144 22.0821C70.3174 22.0821 71.6168 20.7826 71.6168 19.1797V3.70025Z" fill="#9F5757"/>
<path fill-rule="evenodd" clip-rule="evenodd" d="M13.5693 49.1709H23.244V58.8456H13.5693V49.1709Z" fill="#4796E7"/>
<path fill-rule="evenodd" clip-rule="evenodd" d="M40.6587 45.3013H60.008V64.6506H40.6587V45.3013Z" fill="#4796E7"/>
<path fill-rule="evenodd" clip-rule="evenodd" d="M69.6826 45.3013H89.0319V64.6506H69.6826V45.3013Z" fill="#4796E7"/>
<path fill-rule="evenodd" clip-rule="evenodd" d="M9.7002 74.3252H29.0495V93.6745H9.7002V74.3252Z" fill="#4796E7"/>
<path fill-rule="evenodd" clip-rule="evenodd" d="M40.6587 74.3252H60.008V93.6745H40.6587V74.3252Z" fill="#4796E7"/>
<path fill-rule="evenodd" clip-rule="evenodd" d="M69.6826 74.3252H89.0319V93.6745H69.6826V74.3252Z" fill="#4796E7"/>
<path d="M11.9786 66.2731C5.1959 57.6696 8.36585 36.6212 24.0897 49.2257C37.0253 59.595 15.7773 68.6686 14.4338 56.6265C14.2651 55.1143 17.2671 51.9287 17.6611 53.3983" stroke="#E43535" stroke-width="6" stroke-linecap="round"/>
</svg>
