<svg width="30" height="30" viewBox="0 0 30 30" fill="none" xmlns="http://www.w3.org/2000/svg">
<path d="M23.7931 0H6.2069C2.77892 0 0 2.77892 0 6.2069V23.7931C0 27.2211 2.77892 30 6.2069 30H23.7931C27.2211 30 30 27.2211 30 23.7931V6.2069C30 2.77892 27.2211 0 23.7931 0Z" fill="#626262"/>
<path d="M22.7585 3.62109H7.24129C5.24164 3.62109 3.62061 5.24213 3.62061 7.24178V22.759C3.62061 24.7587 5.24164 26.3797 7.24129 26.3797H22.7585C24.7582 26.3797 26.3792 24.7587 26.3792 22.759V7.24178C26.3792 5.24213 24.7582 3.62109 22.7585 3.62109Z" stroke="white" stroke-linecap="round"/>
<path d="M14.9999 19.6551C17.5709 19.6551 19.6551 17.5709 19.6551 14.9999C19.6551 12.4289 17.5709 10.3447 14.9999 10.3447C12.4289 10.3447 10.3447 12.4289 10.3447 14.9999C10.3447 17.5709 12.4289 19.6551 14.9999 19.6551Z" stroke="white" stroke-linecap="round"/>
<path d="M21.7241 9.82806C22.5811 9.82806 23.2758 9.13333 23.2758 8.27633C23.2758 7.41934 22.5811 6.72461 21.7241 6.72461C20.8671 6.72461 20.1724 7.41934 20.1724 8.27633C20.1724 9.13333 20.8671 9.82806 21.7241 9.82806Z" fill="white"/>
</svg>
