<svg width="614" height="417" viewBox="0 0 614 417" fill="none" xmlns="http://www.w3.org/2000/svg">
<path d="M17.027 37.1707C16.9578 34.4532 17.2691 31.7394 17.9516 29.1081C18.5691 26.9333 19.8648 25.0123 21.6501 23.6252C23.838 22.0205 26.3712 20.9502 29.0469 20.5C33.1589 19.7606 37.3332 19.4231 41.5106 19.4922H94.0282C108.366 19.4922 120.305 20.4631 129.847 22.4047C139.389 24.3464 146.99 27.7983 152.648 32.7603C158.307 37.6915 162.286 44.4319 164.585 52.9814C166.884 61.531 168.031 72.318 168.024 85.3426V155.465C168.024 167.793 166.375 177.581 163.078 184.83C160.133 191.66 155.184 197.435 148.885 201.39C142.721 205.187 135.155 207.653 126.186 208.787C116.089 210 105.926 210.574 95.7572 210.506H41.7602C37.6604 210.567 33.562 210.316 29.5 209.758C26.7889 209.424 24.2029 208.423 21.9737 206.845C20.087 205.385 18.7271 203.35 18.0996 201.048C17.3021 197.957 16.9411 194.77 17.027 191.58V37.1707ZM89.7288 155.52C92.1303 155.601 94.529 155.289 96.8297 154.596C98.7784 153.877 100.388 152.455 101.342 150.611C102.689 147.957 103.529 145.075 103.82 142.113C104.384 137.37 104.637 132.595 104.578 127.819V103.853C104.642 98.6802 104.389 93.5081 103.82 88.3661C103.32 84.492 102.451 81.561 101.24 79.5454C100.199 77.6875 98.5159 76.2737 96.5061 75.5696C94.2428 74.8751 91.883 74.5474 89.5161 74.5987H81.1299V155.474L89.7288 155.52ZM131.891 40.0185C137.623 42.8847 141.568 46.0377 143.726 49.4772C144.24 50.4173 145.098 51.1217 146.12 51.4424C147.143 51.7631 148.25 51.6751 149.209 51.197C149.611 50.9701 149.961 50.6623 150.238 50.2931C150.515 49.9238 150.712 49.5012 150.817 49.0519C150.936 48.4491 150.921 47.8276 150.772 47.2315C150.624 46.6354 150.346 46.0794 149.958 45.6031C148.226 42.7328 146.008 40.186 143.402 38.0768C141.009 36.0932 138.367 34.4303 135.543 33.1302C134.374 32.7003 133.137 32.4842 131.891 32.4922C131.281 32.4791 130.679 32.6312 130.148 32.9323C129.617 33.2334 129.178 33.6724 128.877 34.2027C128.02 35.7807 128.02 37.0135 128.877 37.9011C129.765 38.7477 130.782 39.4469 131.891 39.9722V40.0185Z" fill="#6D94F0" stroke="white" stroke-width="2" stroke-miterlimit="10"/>
<path d="M194.339 157.813C193.186 164.497 191.495 171.077 189.281 177.489C187.488 182.297 185.303 185.955 182.726 188.464C180.036 191.025 176.612 192.681 172.934 193.198C168.056 193.889 163.132 194.199 158.205 194.122C153.848 194.184 149.492 193.875 145.187 193.198C141.844 192.701 138.732 191.198 136.265 188.889C133.959 186.664 132.381 183.474 131.531 179.319C130.68 175.165 130.464 169.5 130.883 162.325C131.315 155.163 132.39 146.271 134.11 135.65C135.83 125.03 138.268 112.267 141.424 97.3624C144.58 82.3098 147.412 69.4763 149.921 58.8618C151.968 49.8125 154.59 40.9028 157.771 32.1869C160.495 25.0243 163.399 19.3966 166.481 15.3036C169.399 11.3619 173.198 8.15749 177.576 5.94664C182.303 3.68057 187.404 2.29566 192.628 1.85988C198.361 1.28663 205.172 1 213.062 1C220.952 1 227.764 1.28663 233.496 1.85988C238.723 2.297 243.827 3.68182 248.558 5.94664C252.936 8.15749 256.735 11.3619 259.653 15.3036C262.735 19.3904 265.638 25.0182 268.363 32.1869C271.548 40.9113 274.206 49.819 276.324 58.8618C278.907 69.4763 281.773 82.3098 284.923 97.3624C288.079 112.286 290.544 125.048 292.319 135.65C293.9 144.474 294.977 153.38 295.546 162.325C295.898 169.5 295.645 175.165 294.788 179.319C293.931 183.474 292.319 186.664 289.952 188.889C287.432 191.185 284.289 192.684 280.919 193.198C276.614 193.875 272.258 194.184 267.901 194.122C262.937 194.206 257.975 193.897 253.061 193.198C249.421 192.662 246.038 191.008 243.38 188.464C240.804 185.949 238.646 182.29 236.908 177.489C234.78 171.061 233.133 164.485 231.98 157.813C229.113 157.952 226.062 158.026 222.845 158.026H202.947C199.933 158.026 197.064 157.955 194.339 157.813ZM212.406 108.55H218.111C219.904 108.55 221.726 108.624 223.594 108.763C221.874 98.4442 220.475 90.4309 219.396 84.723C218.317 79.0151 217.423 74.7835 216.714 72.0282C215.993 69.3099 215.346 67.6548 214.773 67.0816C214.558 66.8309 214.295 66.6257 214 66.478C213.704 66.3303 213.383 66.2432 213.053 66.2217C212.689 66.2243 212.33 66.302 211.997 66.45C211.665 66.598 211.366 66.813 211.121 67.0816C210.538 67.6548 209.9 69.2729 209.179 71.9172C208.458 74.5616 207.598 78.7686 206.599 84.5104C205.601 90.2522 204.232 98.2685 202.513 108.596L212.406 108.55ZM239.728 21.4338C241.099 21.4194 242.46 21.6786 243.73 22.1961C245 22.7137 246.154 23.4792 247.125 24.448C249.208 26.4575 250.466 28.3067 250.897 29.9956C250.994 30.508 251.212 30.9897 251.534 31.4C251.856 31.8103 252.272 32.1373 252.746 32.3534C253.284 32.5644 253.862 32.6547 254.439 32.618C255.016 32.5812 255.577 32.4183 256.084 32.1407C256.582 31.9453 257.022 31.6249 257.36 31.2104C257.699 30.7958 257.925 30.301 258.017 29.7737C258.175 28.9102 258.102 28.02 257.804 27.1941C256.452 23.3639 254.072 19.9796 250.925 17.4117C247.769 15.0304 243.891 13.8063 239.941 13.9445C238.751 13.9222 237.573 14.1787 236.501 14.6934C235.493 15.2019 234.994 16.2375 234.994 17.8093C234.994 19.3812 235.493 20.3982 236.501 20.8235C237.523 21.2482 238.622 21.456 239.728 21.4338Z" fill="#6D94F0" stroke="white" stroke-width="2" stroke-miterlimit="10"/>
<path d="M303.969 236.571C299.079 236.624 294.191 236.336 289.341 235.711C285.687 235.279 282.205 233.909 279.236 231.735C276.505 229.658 274.347 226.539 272.763 222.378C271.179 218.218 269.996 212.624 269.213 205.597C268.43 198.57 267.928 189.786 267.706 179.246C267.484 168.705 267.376 155.979 267.382 141.069C267.382 126.158 267.49 113.429 267.706 102.882C267.921 92.3357 268.424 83.555 269.213 76.5403C270.002 69.5133 271.185 63.9195 272.763 59.7587C273.995 56.0915 276.238 52.8475 279.236 50.4017C282.193 48.2301 285.661 46.8604 289.305 46.4259C299.022 45.2792 308.841 45.2792 318.559 46.4259C322.215 46.8542 325.697 48.2242 328.665 50.4017C331.389 52.4852 333.547 55.6042 335.137 59.7587C336.728 63.9133 337.911 69.5072 338.688 76.5403C339.47 83.5673 339.973 92.348 340.195 102.882C340.417 113.417 340.525 126.145 340.518 141.069C340.518 155.979 340.411 168.705 340.195 179.246C339.979 189.786 339.477 198.57 338.688 205.597C337.905 212.624 336.721 218.218 335.137 222.378C333.553 226.539 331.396 229.658 328.665 231.735C325.695 233.909 322.214 235.279 318.559 235.711C313.721 236.334 308.846 236.622 303.969 236.571ZM319.456 59.9714C320.042 60.1302 320.587 60.4152 321.052 60.8065C321.516 61.1978 321.89 61.6859 322.147 62.2367C322.427 62.8167 322.872 63.3014 323.426 63.6302C323.98 63.959 324.619 64.1175 325.262 64.0859C325.752 64.1147 326.241 64.0266 326.69 63.8288C327.138 63.6311 327.533 63.3293 327.842 62.9486C328.421 62.2154 328.725 61.3028 328.702 60.369C328.681 59.4316 328.357 58.5263 327.777 57.7893C327.117 56.9144 326.357 56.12 325.512 55.4223C324.677 54.7155 323.743 54.136 322.738 53.7026C321.93 53.3174 321.053 53.0974 320.159 53.0554C318.007 53.0554 316.932 54.2727 316.932 56.7075C316.865 57.4692 317.088 58.228 317.556 58.8328C318.024 59.4377 318.702 59.8441 319.456 59.9714Z" fill="#6D94F0" stroke="white" stroke-width="2" stroke-miterlimit="10"/>
<path d="M324.865 145.368C324.782 143.326 325.073 141.286 325.725 139.349C326.298 137.916 327.666 136.797 329.812 136.011C331.957 135.225 335.23 134.763 339.603 134.615C343.977 134.467 349.959 134.402 357.559 134.402C365.159 134.402 371.114 134.402 375.413 134.504C378.647 134.517 381.878 134.696 385.094 135.04C387.248 135.336 388.607 135.798 389.18 136.445C389.795 137.203 390.102 138.163 390.04 139.136V144.083C390.04 150.826 392.694 154.266 398.001 154.401H407.894C410.761 154.401 412.804 153.477 414.025 151.627C415.245 149.778 415.862 147.195 415.874 143.879C415.875 141.58 415.203 139.33 413.941 137.407C413.142 136.188 412.119 135.13 410.927 134.291C409.266 133.248 407.5 132.384 405.657 131.711C403.29 130.781 400.063 129.634 395.976 128.272C391.89 126.91 386.536 124.937 379.916 122.354L351.521 111.814C343.872 109.223 337.148 104.45 332.179 98.0835C327.309 91.7777 324.871 83.6751 324.865 73.7757V55.2835C324.865 40.231 329.097 28.7967 337.56 20.9807C346.023 13.1647 357.639 9.24127 372.408 9.21045H433.543C448.337 9.21045 459.95 13.1184 468.382 20.9344C476.815 28.7504 481.046 40.1847 481.077 55.2373V67.2572C481.164 69.5117 480.873 71.7649 480.217 73.9236C479.644 75.5016 478.282 76.6851 476.13 77.4741C472.991 78.4324 469.732 78.9398 466.45 78.9812C462.135 79.1908 456.184 79.2986 448.596 79.3048C441.008 79.311 435.022 79.274 430.64 79.1938C427.361 79.221 424.085 78.9704 420.848 78.4449C418.694 78.0103 417.335 77.4094 416.761 76.5957C416.13 75.6052 415.828 74.4397 415.902 73.2671V67.4976C415.902 64.206 415.285 61.6633 414.052 59.8696C412.82 58.0758 410.776 57.179 407.922 57.179H398.029C395.163 57.179 393.119 58.0758 391.899 59.8696C390.678 61.6633 390.062 64.206 390.05 67.4976C389.933 70.5422 390.76 73.5485 392.417 76.1057C393.286 77.5699 394.459 78.8309 395.856 79.8041C397.596 80.8847 399.458 81.7538 401.404 82.393C403.869 83.2498 407.062 84.2514 410.983 85.3979C414.903 86.5445 420.099 88.1964 426.572 90.3538L454.106 99.8125C458.206 101.145 462.058 103.144 465.507 105.73C468.704 108.135 471.53 110.998 473.893 114.227C478.368 120.345 480.781 127.728 480.781 135.308L480.994 145.839C481.054 153.655 480.479 161.463 479.274 169.186C478.347 175.577 475.996 181.679 472.395 187.04C468.742 192.148 463.701 196.101 457.869 198.431C451.638 201.094 443.501 202.422 433.46 202.416H372.408C357.614 202.416 345.998 198.508 337.56 190.692C329.121 182.876 324.89 171.423 324.865 156.334V145.368ZM448.762 29.6627C452.202 29.6627 454.606 30.2791 455.974 31.5119C457.221 32.5799 458.176 33.9483 458.748 35.4877C459.247 36.9209 459.672 38.2616 460.042 39.4635C460.412 40.6655 461.438 41.3127 463.158 41.3127C463.673 41.3378 464.187 41.255 464.668 41.0698C465.148 40.8845 465.585 40.6009 465.95 40.237C466.315 39.8731 466.599 39.4371 466.786 38.9568C466.972 38.4765 467.056 37.9625 467.032 37.4479C467.023 36.5343 466.876 35.6274 466.598 34.7573C466.311 33.8327 466.024 33.0005 465.738 32.2794C465.193 30.6129 464.323 29.071 463.179 27.7427C462.035 26.4143 460.639 25.3259 459.071 24.5404C455.936 22.9659 452.474 22.1549 448.965 22.1734C447.776 22.1501 446.598 22.4066 445.526 22.9223C444.518 23.4309 444.019 24.4664 444.019 26.0383C444.019 27.6101 444.518 28.6272 445.526 29.0525C446.55 29.479 447.653 29.6868 448.762 29.6627Z" fill="#6D94F0" stroke="white" stroke-width="2" stroke-miterlimit="10"/>
<path d="M524.866 99.9884C529.736 86.7974 534.146 76.5435 538.097 69.2268C542.048 61.9101 546.209 56.495 550.579 52.9815C554.869 49.505 560.05 47.3068 565.53 46.6387C572.384 45.8558 579.279 45.4976 586.177 45.5661C594.35 45.5661 600.622 46.1024 604.993 47.1749C609.363 48.2475 611.875 50.7131 612.528 54.5718C613.144 58.4428 611.961 64.1414 608.978 71.6677C605.994 79.194 601.189 89.4109 594.563 102.318C589.545 112.076 584.349 121.541 578.974 130.713C573.608 139.87 567.605 148.638 561.009 156.953C560.861 175.445 560.396 190.002 559.613 200.622C558.83 211.243 557.144 219.201 554.555 224.496C551.979 229.803 548.323 233.138 543.589 234.5C538.856 235.862 532.473 236.543 524.441 236.543C516.428 236.543 510.045 235.862 505.292 234.5C500.54 233.138 496.885 229.803 494.326 224.496C491.75 219.189 490.064 211.194 489.269 200.512C488.474 189.829 488.008 175.239 487.873 156.741C481.324 148.728 475.428 140.204 470.241 131.249C464.927 122.145 459.688 112.501 454.522 102.318C447.785 89.4294 442.949 79.2218 440.015 71.6955C437.081 64.1692 435.931 58.4798 436.566 54.6273C437.214 50.7562 439.725 48.2906 444.102 47.2304C448.478 46.1702 454.753 45.6339 462.927 45.6216C469.825 45.5536 476.72 45.9118 483.573 46.6941C489.052 47.3677 494.232 49.5652 498.524 53.0369C502.901 56.5504 507.058 61.9655 510.997 69.2822C514.936 76.599 519.346 86.8528 524.228 100.044L524.441 100.895L524.866 99.9884ZM485.108 58.8989C485.692 59.0573 486.235 59.3413 486.698 59.7309C487.161 60.1206 487.534 60.6065 487.79 61.155C488.076 61.7187 488.518 62.1878 489.064 62.506C489.611 62.8242 490.237 62.9779 490.868 62.9487C491.352 62.983 491.837 62.9039 492.285 62.7177C492.733 62.5315 493.131 62.2434 493.448 61.8762C494.027 61.1393 494.331 60.2239 494.308 59.2873C494.289 58.3496 493.965 57.4436 493.383 56.7076C492.724 55.8351 491.967 55.0409 491.127 54.3406C490.288 53.6402 489.354 53.0612 488.354 52.6209C487.541 52.2389 486.661 52.019 485.765 51.9736C483.62 51.9736 482.547 53.2064 482.547 55.6721C482.493 56.4286 482.722 57.1782 483.19 57.7748C483.659 58.3714 484.333 58.7722 485.08 58.8989H485.108ZM594.378 58.8989C594.963 59.0573 595.507 59.3411 595.972 59.7307C596.436 60.1202 596.811 60.6063 597.069 61.155C597.347 61.7365 597.792 62.2226 598.346 62.5517C598.901 62.8808 599.541 63.0382 600.185 63.0042C600.667 63.0333 601.149 62.9499 601.594 62.7606C602.038 62.5712 602.433 62.2811 602.746 61.9131C603.325 61.1763 603.629 60.2609 603.606 59.3243C603.587 58.3865 603.262 57.4806 602.681 56.7446C602.024 55.8699 601.267 55.0755 600.425 54.3776C599.586 53.6771 598.652 53.0982 597.651 52.6578C596.841 52.277 595.965 52.0572 595.072 52.0106C592.914 52.0106 591.838 53.2434 591.845 55.709C591.799 56.4554 592.029 57.1926 592.491 57.7806C592.953 58.3687 593.614 58.7666 594.35 58.8989H594.378Z" fill="#6D94F0" stroke="white" stroke-width="2" stroke-miterlimit="10"/>
<path d="M65.3375 363.732C65.2035 371.901 64.586 380.055 63.4883 388.151C62.5514 394.241 60.9025 398.901 58.5417 402.131C56.2077 405.342 52.8211 407.632 48.972 408.603C43.8985 409.793 38.6945 410.333 33.4849 410.212C25.8846 410.212 19.9332 409.497 15.6307 408.067C11.3282 406.637 8.13835 403.086 6.06107 397.415C3.98379 391.744 2.69242 383.247 2.18697 371.924C1.68152 360.601 1.43188 345.113 1.43804 325.463V235.776C1.36931 233.055 1.68051 230.338 2.36265 227.704C2.98479 225.531 4.27961 223.612 6.06107 222.221C8.25019 220.62 10.7832 219.553 13.4579 219.105C17.5773 218.377 21.7577 218.052 25.9401 218.134H75.4065C91.6179 218.134 104.812 219.389 114.989 221.897C125.166 224.406 133.09 228.53 138.76 234.269C144.419 240.014 148.29 247.506 150.374 256.746C152.457 265.986 153.496 277.352 153.489 290.845C153.489 304.751 152.306 316.364 149.939 325.684C147.572 335.004 143.522 342.5 137.79 348.171C132.045 353.829 124.3 357.836 114.554 360.191C104.809 362.545 92.6196 363.729 77.9862 363.741L65.3375 363.732ZM70.0715 316.623C76.6609 316.623 81.1051 314.833 83.4043 311.251C85.7035 307.67 86.8408 301.287 86.8161 292.103V290.17C86.8161 281.855 85.5987 275.999 83.1639 272.603C80.7291 269.206 76.2849 267.521 69.8311 267.545H65.5502V316.549L70.0715 316.623ZM116.302 238.54C122.028 241.413 125.97 244.569 128.128 248.008C128.406 248.52 128.79 248.966 129.254 249.318C129.718 249.67 130.251 249.92 130.818 250.052C131.752 250.279 132.736 250.165 133.592 249.728C133.995 249.5 134.348 249.191 134.626 248.82C134.904 248.449 135.103 248.025 135.21 247.574C135.328 246.972 135.312 246.353 135.164 245.758C135.015 245.164 134.737 244.609 134.35 244.134C132.623 241.258 130.4 238.71 127.785 236.608C125.395 234.625 122.756 232.962 119.936 231.661C118.768 231.225 117.53 231.005 116.283 231.014C115.672 231 115.068 231.152 114.537 231.455C114.006 231.758 113.568 232.2 113.269 232.734C112.412 234.312 112.412 235.545 113.269 236.432C114.161 237.301 115.192 238.014 116.32 238.54H116.302Z" fill="#6D94F0" stroke="white" stroke-width="2" stroke-miterlimit="10"/>
<path d="M178.445 378.572C177.3 385.26 175.611 391.843 173.396 398.257C171.596 403.052 169.408 406.708 166.831 409.223C164.154 411.775 160.748 413.43 157.086 413.957C152.188 414.672 147.242 414.996 142.292 414.927C137.958 414.975 133.627 414.651 129.348 413.957C126.003 413.464 122.888 411.964 120.416 409.657C118.123 407.426 116.545 404.236 115.682 400.087C114.819 395.939 114.604 390.274 115.035 383.093C115.467 375.918 116.545 367.027 118.271 356.418C119.997 345.81 122.42 333.05 125.539 318.14C128.682 303.075 131.515 290.241 134.036 279.639C136.079 270.59 138.698 261.68 141.876 252.964C144.619 245.795 147.532 240.165 150.614 236.072C153.53 232.128 157.33 228.924 161.709 226.715C166.435 224.445 171.537 223.059 176.762 222.628C182.494 222.055 189.306 221.768 197.196 221.768C205.086 221.768 211.897 222.055 217.629 222.628C222.858 223.058 227.963 224.443 232.691 226.715C237.069 228.926 240.868 232.13 243.786 236.072C246.868 240.158 249.772 245.786 252.496 252.955C255.691 261.676 258.349 270.584 260.457 279.63C263.034 290.244 265.903 303.078 269.065 318.13C272.221 333.041 274.687 345.804 276.462 356.418C278.043 365.242 279.12 374.148 279.689 383.093C280.053 390.262 279.803 395.927 278.94 400.087C278.077 404.248 276.45 407.444 274.058 409.676C271.538 411.97 268.395 413.467 265.025 413.975C260.724 414.673 256.372 414.998 252.015 414.946C247.048 415.02 242.082 414.695 237.166 413.975C233.529 413.439 230.149 411.785 227.495 409.241C224.906 406.738 222.749 403.083 221.023 398.275C218.884 391.847 217.23 385.267 216.076 378.59C213.2 378.738 210.159 378.803 206.932 378.803H187.053C184.038 378.785 181.172 378.72 178.445 378.572ZM196.521 329.318H202.216C204.01 329.318 205.838 329.389 207.699 329.531C205.979 319.2 204.583 311.168 203.511 305.436C202.438 299.703 201.532 295.478 200.82 292.75C200.108 290.022 199.452 288.377 198.888 287.803C198.67 287.553 198.406 287.348 198.109 287.201C197.812 287.053 197.489 286.966 197.159 286.944C196.795 286.948 196.436 287.026 196.104 287.174C195.771 287.322 195.473 287.536 195.226 287.803C194.653 288.377 194.009 289.989 193.294 292.639C192.579 295.29 191.716 299.475 190.705 305.195C189.706 310.94 188.347 318.972 186.627 329.29L196.521 329.318ZM223.833 242.202C225.205 242.189 226.565 242.448 227.835 242.966C229.105 243.483 230.259 244.248 231.23 245.216C233.301 247.219 234.556 249.069 234.993 250.764C235.091 251.277 235.31 251.759 235.631 252.171C235.953 252.583 236.368 252.912 236.843 253.131C237.379 253.342 237.955 253.432 238.531 253.395C239.106 253.358 239.666 253.195 240.171 252.918C240.669 252.72 241.108 252.399 241.448 251.985C241.787 251.571 242.016 251.078 242.113 250.551C242.264 249.686 242.188 248.797 241.891 247.971C240.548 244.134 238.167 240.744 235.012 238.18C231.871 235.769 227.995 234.516 224.037 234.629C222.847 234.61 221.669 234.87 220.597 235.388C219.589 235.887 219.09 236.932 219.09 238.503C219.09 240.075 219.589 241.092 220.597 241.518C221.618 241.964 222.719 242.197 223.833 242.202Z" fill="#6D94F0" stroke="white" stroke-width="2" stroke-miterlimit="10"/>
<path d="M295.648 389.048C290.755 389.089 285.865 388.839 281.002 388.299C277.289 387.919 273.706 386.726 270.508 384.804C267.432 382.767 264.981 379.919 263.425 376.575C261.252 371.874 259.665 366.924 258.7 361.837C257.157 354.197 256.021 346.481 255.298 338.721C254.355 329.475 253.378 318.294 252.367 305.177C251.356 292.06 250.57 280.878 250.009 271.632C249.436 262.386 249.183 254.681 249.251 248.517C249.19 243.572 249.633 238.634 250.573 233.779C251.387 230.123 252.678 227.383 254.447 225.559C256.282 223.693 258.668 222.465 261.252 222.055C264.614 221.51 268.017 221.26 271.423 221.306C277.47 221.306 282.226 221.777 285.69 222.72C289.154 223.663 291.863 226.058 293.817 229.905C295.771 233.751 297.22 239.545 298.163 247.287C299.106 255.029 300.03 265.644 300.936 279.131C301.812 292.741 302.505 303.389 303.017 311.076C303.528 318.762 303.938 324.556 304.247 328.458C304.561 332.372 304.78 334.798 304.903 335.735C305.032 336.66 305.217 337.15 305.476 337.15C305.735 337.15 305.754 336.678 305.948 335.735C306.142 334.792 306.382 332.369 306.706 328.458C307.03 324.547 307.455 318.759 308.028 311.076C308.601 303.392 309.378 292.741 310.386 279.131C311.394 265.52 312.235 255.035 313.224 247.287C314.214 239.539 315.712 233.751 317.663 229.905C319.613 226.058 322.36 223.663 325.882 222.72C335.365 220.834 345.127 220.834 354.61 222.72C358.136 223.663 360.876 226.058 362.83 229.905C364.784 233.751 366.266 239.545 367.277 247.287C368.282 255.035 369.289 265.65 370.3 279.131C371.163 292.691 371.903 303.315 372.519 311.002C373.136 318.688 373.577 324.482 373.842 328.384C374.156 332.298 374.375 334.724 374.498 335.661C374.628 336.586 374.812 337.076 375.071 337.076C375.188 337.076 375.346 336.604 375.543 335.661C375.74 334.718 375.993 332.292 376.301 328.384C376.615 324.482 377.022 318.688 377.521 311.002C378.021 303.315 378.714 292.667 379.602 279.057C380.477 265.576 381.402 254.961 382.376 247.213C383.35 239.465 384.798 233.671 386.721 229.831C388.669 225.984 391.378 223.589 394.849 222.646C398.319 221.703 403.075 221.232 409.115 221.232C412.521 221.187 415.924 221.437 419.286 221.981C421.867 222.393 424.249 223.621 426.082 225.485C427.845 227.334 429.139 230.074 429.965 233.705C430.896 238.561 431.339 243.498 431.287 248.443C431.343 254.607 431.09 262.312 430.529 271.558C429.968 280.804 429.179 291.986 428.162 305.103C427.127 318.232 426.147 329.426 425.222 338.684C424.494 346.444 423.358 354.16 421.819 361.8C420.851 366.886 419.264 371.836 417.095 376.538C415.548 379.863 413.129 382.707 410.095 384.767C406.939 386.7 403.386 387.895 399.703 388.262C394.84 388.802 389.95 389.052 385.057 389.011C378.258 389.118 371.461 388.741 364.716 387.883C359.729 387.124 355.917 385.235 353.278 382.215C350.64 379.194 348.791 374.658 347.731 368.605C346.658 362.558 345.681 354.236 344.8 343.64C343.918 333.044 343.225 324.723 342.719 318.676C342.22 312.629 341.813 308.123 341.499 305.158C341.185 302.193 340.932 300.344 340.741 299.611C340.547 298.852 340.389 298.483 340.269 298.483C340.149 298.483 339.825 298.852 339.696 299.611C339.566 300.369 339.354 302.227 339.039 305.158C338.725 308.089 338.346 312.629 337.902 318.676C337.458 324.723 336.802 333.035 335.924 343.64C335.045 354.245 334.074 362.539 332.9 368.605C331.726 374.67 329.867 379.182 327.223 382.215C324.579 385.248 320.751 387.124 315.887 387.883C309.177 388.755 302.413 389.144 295.648 389.048ZM279.772 231.227C279.835 231.843 280.027 232.439 280.336 232.976C280.645 233.513 281.065 233.979 281.566 234.343C282.435 235.266 283.613 235.839 284.876 235.951C285.313 235.978 285.75 235.909 286.157 235.75C286.564 235.59 286.932 235.343 287.234 235.027C287.823 234.347 288.127 233.466 288.084 232.567C288.052 231.94 287.882 231.327 287.589 230.771C287.295 230.215 286.883 229.73 286.383 229.35C285.533 228.473 284.392 227.937 283.175 227.843C282.722 227.819 282.269 227.89 281.845 228.053C281.421 228.215 281.036 228.465 280.716 228.786C280.395 229.107 280.145 229.492 279.982 229.915C279.82 230.339 279.748 230.792 279.772 231.245V231.227ZM349.885 231.227C349.948 231.843 350.14 232.439 350.449 232.976C350.758 233.513 351.177 233.979 351.679 234.343C352.55 235.263 353.727 235.835 354.989 235.951C355.427 235.977 355.865 235.908 356.274 235.748C356.682 235.589 357.051 235.343 357.356 235.027C357.937 234.343 358.238 233.464 358.197 232.567C358.164 231.941 357.996 231.329 357.704 230.773C357.412 230.218 357.003 229.732 356.505 229.35C355.65 228.475 354.507 227.939 353.288 227.843C352.834 227.819 352.381 227.89 351.958 228.053C351.534 228.215 351.149 228.465 350.828 228.786C350.507 229.107 350.258 229.492 350.095 229.915C349.933 230.339 349.861 230.792 349.885 231.245V231.227ZM414.709 231.227C414.772 231.843 414.964 232.439 415.273 232.976C415.582 233.513 416.001 233.979 416.503 234.343C417.374 235.263 418.551 235.835 419.813 235.951C420.251 235.977 420.689 235.908 421.098 235.748C421.506 235.589 421.875 235.343 422.18 235.027C422.761 234.343 423.062 233.464 423.021 232.567C422.988 231.94 422.819 231.327 422.525 230.771C422.232 230.215 421.82 229.73 421.32 229.35C420.47 228.473 419.329 227.937 418.112 227.843C417.659 227.819 417.205 227.89 416.782 228.053C416.358 228.215 415.973 228.465 415.652 228.786C415.332 229.107 415.082 229.492 414.919 229.915C414.757 230.339 414.685 230.792 414.709 231.245V231.227Z" fill="#6D94F0" stroke="white" stroke-width="2" stroke-miterlimit="10"/>
<path d="M406.129 363.445C406.049 361.563 406.319 359.682 406.924 357.898C407.442 356.579 408.696 355.555 410.687 354.828C413.611 353.953 416.65 353.519 419.702 353.543C423.727 353.407 429.238 353.339 436.234 353.339C443.23 353.339 448.713 353.373 452.683 353.441C455.66 353.449 458.635 353.613 461.596 353.931C463.575 354.199 464.823 354.625 465.359 355.226C465.922 355.924 466.202 356.808 466.145 357.704V362.253C466.145 368.466 468.589 371.637 473.477 371.767H482.594C485.229 371.767 487.115 370.907 488.234 369.187C489.469 367.023 490.054 364.547 489.917 362.059C489.916 359.946 489.299 357.88 488.141 356.113C487.405 354.989 486.464 354.014 485.367 353.238C483.836 352.279 482.21 351.483 480.513 350.862C478.331 350.011 475.36 348.954 471.6 347.69C467.84 346.426 462.909 344.611 456.806 342.244L430.659 332.545C423.602 330.149 417.402 325.739 412.823 319.859C408.342 314.053 406.098 306.591 406.092 297.475V280.471C406.092 266.602 409.987 256.068 417.779 248.868C425.57 241.669 436.268 238.072 449.872 238.078H506.125C519.729 238.078 530.427 241.675 538.218 248.868C546.009 256.062 549.905 266.596 549.905 280.471V291.567C549.981 293.642 549.715 295.716 549.119 297.706C548.775 298.498 548.257 299.202 547.604 299.767C546.952 300.332 546.18 300.743 545.347 300.97C542.456 301.853 539.455 302.32 536.433 302.357C532.476 302.56 526.996 302.659 519.994 302.653C512.992 302.646 507.478 302.616 503.453 302.56C500.434 302.58 497.418 302.348 494.438 301.867C492.459 301.469 491.202 300.942 490.675 300.175C490.093 299.261 489.815 298.186 489.88 297.105V291.761C489.88 288.719 489.316 286.38 488.197 284.724C487.078 283.069 485.192 282.256 482.557 282.256H473.44C470.796 282.256 468.916 283.079 467.8 284.724C466.672 286.38 466.108 288.719 466.108 291.761C466.004 294.563 466.766 297.33 468.29 299.685C469.1 301.016 470.181 302.162 471.461 303.05C473.076 304.047 474.805 304.845 476.611 305.426C478.855 306.222 481.795 307.146 485.432 308.2C489.069 309.254 493.855 310.774 499.791 312.759L525.144 321.478C528.921 322.703 532.469 324.543 535.648 326.923C538.587 329.142 541.188 331.777 543.368 334.746C547.49 340.38 549.712 347.181 549.711 354.162L549.905 363.862C549.96 371.058 549.431 378.247 548.324 385.359C547.468 391.244 545.3 396.863 541.981 401.798C538.619 406.505 533.98 410.15 528.611 412.302C522.866 414.767 515.371 416 506.125 416H449.909C436.299 416 425.601 412.403 417.816 405.21C410.031 398.016 406.135 387.485 406.129 373.616V363.445ZM520.225 256.866C523.393 256.866 525.606 257.427 526.864 258.549C528.023 259.543 528.911 260.816 529.443 262.247C529.896 263.569 530.294 264.79 530.627 265.946C530.96 267.101 531.912 267.629 533.502 267.629C533.977 267.654 534.452 267.579 534.895 267.409C535.339 267.239 535.742 266.978 536.079 266.643C536.415 266.307 536.677 265.904 536.848 265.461C537.019 265.018 537.095 264.543 537.071 264.069C537.061 263.228 536.927 262.393 536.674 261.591C536.406 260.731 536.147 259.973 535.879 259.307C535.376 257.773 534.574 256.353 533.521 255.13C532.467 253.906 531.182 252.903 529.739 252.178C526.862 250.722 523.682 249.961 520.456 249.959C519.359 249.938 518.273 250.176 517.285 250.653C516.36 251.115 515.898 252.077 515.898 253.528C515.898 254.98 516.36 255.905 517.285 256.302C518.214 256.698 519.215 256.899 520.225 256.894V256.866Z" fill="#6D94F0" stroke="white" stroke-width="2" stroke-miterlimit="10"/>
</svg>
