<svg width="101" height="99" viewBox="0 0 101 99" fill="none" xmlns="http://www.w3.org/2000/svg">
<path fill-rule="evenodd" clip-rule="evenodd" d="M0.5 9.61708L25.5 0.183716V88.8574L0.5 98.2907V9.61708Z" fill="#5395EA"/>
<path fill-rule="evenodd" clip-rule="evenodd" d="M50.5 9.61708L25.5 0.183716V88.8574L50.5 98.2907V9.61708Z" fill="#B4DFFB"/>
<path fill-rule="evenodd" clip-rule="evenodd" d="M50.5 9.61707H100.5V98.2907H50.5V9.61707Z" fill="#5395EA"/>
<path fill-rule="evenodd" clip-rule="evenodd" d="M75.5001 72.3811C72.2002 72.3811 61.2144 55.6863 61.2144 47.3505C61.2144 39.0146 67.6103 32.2571 75.5001 32.2571C83.3899 32.2571 89.7858 39.0146 89.7858 47.3505C89.7858 55.6863 78.8 72.3811 75.5001 72.3811ZM75.5001 51.1238C78.4587 51.1238 80.8572 48.5897 80.8572 45.4638C80.8572 42.3379 78.4587 39.8038 75.5001 39.8038C72.5414 39.8038 70.1429 42.3379 70.1429 45.4638C70.1429 48.5897 72.5414 51.1238 75.5001 51.1238Z" fill="#FCC24C"/>
</svg>
