<svg width="101" height="92" viewBox="0 0 101 92" fill="none" xmlns="http://www.w3.org/2000/svg">
<path fill-rule="evenodd" clip-rule="evenodd" d="M17.7705 73.792C17.7705 83.3302 25.5028 91.0625 35.041 91.0625C42.0076 91.0625 44.4598 86.4019 50.7414 86.4019C57.023 86.4019 59.4752 91.0625 66.4418 91.0625C75.98 91.0625 83.7123 83.3302 83.7123 73.792C83.7123 65.8807 78.3927 59.2117 71.1353 57.167C71.1464 56.9528 71.1519 56.7376 71.1519 56.5216C71.1519 46.9833 63.3917 39.2511 50.7414 39.2511C38.0911 39.2511 30.3308 46.9833 30.3308 56.5216C30.3308 56.7376 30.3364 56.9528 30.3474 57.167C23.0901 59.2117 17.7705 65.8807 17.7705 73.792Z" fill="#F7C1DC"/>
<path fill-rule="evenodd" clip-rule="evenodd" d="M41.4124 32.0192C51.3308 27.4756 49.9603 21.7424 47.0369 14.5067C44.1135 7.27094 36.388 1.93515 30.3583 4.37134C26.6105 5.88554 25.6356 8.62877 25.2011 13.2982C24.7666 17.9677 24.0948 20.5905 25.2011 23.3289C28.1246 30.5646 31.4939 36.5628 41.4124 32.0192Z" fill="#F7C1DC"/>
<path fill-rule="evenodd" clip-rule="evenodd" d="M62.2244 32.0186C52.3059 27.475 53.6764 21.7418 56.5998 14.5061C59.5232 7.27033 67.2487 1.93454 73.2785 4.37073C77.0262 5.88493 78.0011 8.62816 78.4356 13.2976C78.8701 17.9671 79.542 20.5899 78.4356 23.3283C75.5121 30.564 72.1428 36.5622 62.2244 32.0186Z" fill="#F7C1DC"/>
<path d="M26.0343 50.6549C29.7131 46.9761 28.4705 39.7689 23.2588 34.5572C18.0472 29.3455 10.84 28.1029 7.16112 31.7817C3.48229 35.4606 4.72491 42.6678 9.93659 47.8795C15.1483 53.0911 22.3555 54.3338 26.0343 50.6549Z" fill="#F7C1DC"/>
<path d="M74.3614 52.021C77.8426 55.8873 85.105 55.0236 90.5823 50.0918C96.0596 45.16 97.6777 38.0277 94.1964 34.1614C90.7152 30.295 83.4528 31.1588 77.9755 36.0906C72.4982 41.0223 70.8801 48.1546 74.3614 52.021Z" fill="#F7C1DC"/>
</svg>
