<svg width="118" height="56" viewBox="0 0 118 56" fill="none" xmlns="http://www.w3.org/2000/svg">
<path opacity="0.54" d="M56.5352 26.6619C54.2846 26.6619 52.4545 28.2908 52.4545 30.5404C52.4545 32.7769 54.2846 34.4189 56.5352 34.4189C58.7857 34.4189 60.6159 32.7788 60.6159 30.5404C60.6159 28.302 58.7877 26.6619 56.5352 26.6619ZM56.5352 32.8925C55.3072 32.8925 54.2357 31.9168 54.2357 30.5404C54.2357 29.1407 55.2945 28.1883 56.5352 28.1883C57.7758 28.1883 58.8346 29.1407 58.8346 30.5404C58.8229 31.9168 57.7631 32.8925 56.5352 32.8925ZM67.4653 27.5342H67.4066C67.0097 27.0757 66.2393 26.6619 65.2636 26.6619C63.2301 26.6619 61.353 28.3719 61.353 30.5516C61.353 32.7201 63.2184 34.4189 65.2636 34.4189C66.2383 34.4189 67.0087 34.0061 67.4066 33.5355H67.4653V34.0974C67.4653 35.5772 66.6343 36.3693 65.2988 36.3693C64.2038 36.3693 63.539 35.6238 63.2526 34.9929L61.7001 35.6126C62.1459 36.6451 63.3367 37.9069 65.3115 37.9069C67.4056 37.9069 69.1752 36.7365 69.1752 33.8681V26.9033H67.478L67.4653 27.5342ZM65.4191 32.8925C64.1911 32.8925 63.1558 31.9047 63.1558 30.5516C63.1558 29.1864 64.1921 28.1883 65.4191 28.1883C66.6353 28.1883 67.5855 29.1855 67.5855 30.5516C67.5855 31.9177 66.6343 32.8925 65.4191 32.8925ZM47.6278 26.6619C45.3773 26.6619 43.5471 28.2908 43.5471 30.5404C43.5471 32.7769 45.3753 34.4189 47.6278 34.4189C49.8803 34.4189 51.7085 32.7788 51.7085 30.5404C51.7085 28.302 49.8803 26.6619 47.6278 26.6619ZM47.6278 32.8925C46.3999 32.8925 45.3284 31.9168 45.3284 30.5404C45.3284 29.1407 46.3872 28.1883 47.6278 28.1883C48.8557 28.1883 49.9272 29.1407 49.9272 30.5404C49.9155 31.9168 48.8557 32.8925 47.6278 32.8925ZM37.0232 27.8445V29.4846H41.1518C41.0316 30.4137 40.706 31.0911 40.2133 31.5627C39.6111 32.1367 38.6725 32.7676 37.0232 32.7676C34.4833 32.7676 32.4967 30.8172 32.4967 28.3878C32.4967 25.9583 34.4833 24.0079 37.0232 24.0079C38.3959 24.0079 39.395 24.5242 40.1517 25.1784L41.3679 24.0191C40.3316 23.0872 38.9609 22.3557 37.035 22.3557C33.5565 22.3557 30.6187 25.0637 30.6187 28.3794C30.6187 31.695 33.5438 34.403 37.035 34.403C38.9121 34.403 40.3336 33.8178 41.4403 32.7256C42.5841 31.6353 42.9331 30.1099 42.9331 28.8816C42.935 28.5353 42.9023 28.1896 42.8354 27.8492L37.0232 27.8445ZM80.3575 29.1491C80.0202 28.2769 78.9849 26.6824 76.8791 26.6824C74.7849 26.6824 73.0388 28.2545 73.0388 30.5609C73.0388 32.7294 74.7595 34.4394 77.0717 34.4394C78.937 34.4394 80.0212 33.3491 80.466 32.7182L79.0817 31.8348C78.6242 32.4871 77.9867 32.9018 77.0834 32.9018C76.18 32.9018 75.5309 32.5011 75.1085 31.7313L80.5492 29.5862L80.3575 29.1491ZM74.8201 30.4351C74.7712 28.932 76.0363 28.1744 76.9514 28.1744C77.6612 28.1744 78.2634 28.507 78.457 29L74.8201 30.4351ZM70.3914 34.198H72.1726V22.8049H70.3914V34.198ZM88.736 22.8049H84.4637V34.198H86.2449V29.8834H88.7379C90.7128 29.8834 92.6622 28.5182 92.6622 26.3376C92.6622 24.1692 90.7118 22.804 88.7379 22.804L88.736 22.8049ZM88.7849 28.2778H86.2449V24.377H88.7849C90.1213 24.377 90.879 25.4328 90.879 26.3274C90.879 27.222 90.1203 28.2778 88.7849 28.2778ZM93.6477 34.198H95.429V22.8049H93.6477V34.198ZM99.8108 26.648C98.5232 26.648 97.1751 27.1884 96.6207 28.3906L98.2094 29.0214C98.5467 28.3906 99.1724 28.1827 99.8343 28.1827C100.761 28.1827 101.7 28.7102 101.711 29.6514V29.766C101.387 29.5936 100.7 29.3299 99.846 29.3299C98.1371 29.3299 96.4047 30.2245 96.4047 31.9C96.4047 33.4264 97.8008 34.4012 99.3767 34.4012C100.579 34.4012 101.242 33.8849 101.652 33.2885H101.71V34.1719H103.431V29.7921C103.443 27.7727 101.854 26.6368 99.8079 26.6368L99.8108 26.648ZM99.5938 32.8915C99.0042 32.8915 98.1977 32.6166 98.1977 31.928C98.1977 31.0445 99.2086 30.7119 100.087 30.7119C100.87 30.7119 101.243 30.8722 101.712 31.0902C101.649 31.5845 101.399 32.0399 101.009 32.3714C100.619 32.7028 100.116 32.8877 99.5938 32.8915ZM109.717 26.8902L107.671 31.8357H107.612L105.494 26.8902H103.568L106.745 33.7973L104.927 37.6525H106.792L111.703 26.9014H109.716L109.717 26.8902Z" fill="black"/>
<path d="M6.04209 17.1325C5.77561 17.3992 5.61572 17.8183 5.61572 18.3517V37.5671C5.61572 38.1005 5.77561 38.5196 6.04209 38.7863L6.10871 38.8498L17.4075 28.08V27.826L6.10871 17.0563L6.04209 17.1325Z" fill="url(#paint0_linear_60_620)"/>
<path d="M21.1646 31.6742L17.4072 28.08V27.826L21.1779 24.2319L21.2579 24.2827L25.7214 26.6957C27.0005 27.3815 27.0005 28.5118 25.7214 29.2103L21.2579 31.6234L21.1646 31.6742Z" fill="url(#paint1_linear_60_620)"/>
<path d="M21.258 31.6234L17.4074 27.9531L6.04199 38.7863C6.45504 39.2054 7.16121 39.2689 7.934 38.8371L21.258 31.6234Z" fill="url(#paint2_linear_60_620)"/>
<path d="M21.258 24.2954L7.934 17.0817C7.14788 16.6626 6.45504 16.7134 6.04199 17.1325L17.4074 27.9658L21.258 24.2954Z" fill="url(#paint3_linear_60_620)"/>
<path opacity="0.2" d="M21.1647 31.5472L7.934 38.7101C7.18785 39.1165 6.53498 39.0911 6.10861 38.7228L6.04199 38.7863L6.10861 38.8498C6.53498 39.2181 7.20118 39.2435 7.934 38.8371L21.258 31.6234L21.1647 31.5472Z" fill="black"/>
<path opacity="0.12" d="M6.04209 38.6593C5.77561 38.3926 5.61572 37.9735 5.61572 37.4401V37.5671C5.61572 38.1005 5.77561 38.5196 6.04209 38.7863L6.10871 38.7228L6.04209 38.6593ZM25.7083 29.0834L21.1648 31.5472L21.2448 31.6234L25.7083 29.2104C26.3479 28.8675 26.6676 28.4103 26.6676 27.9531C26.6143 28.3722 26.2946 28.7659 25.7083 29.0834Z" fill="black"/>
<path opacity="0.25" d="M7.9341 17.196L25.7083 26.8227C26.2812 27.1402 26.6143 27.5339 26.6676 27.953C26.6676 27.4958 26.3479 27.0386 25.7083 26.6957L7.9341 17.069C6.65499 16.3832 5.61572 16.9547 5.61572 18.339V18.466C5.61572 17.0817 6.65499 16.5102 7.9341 17.196Z" fill="white"/>
<defs>
<linearGradient id="paint0_linear_60_620" x1="16.3943" y1="18.1426" x2="1.82653" y2="33.4259" gradientUnits="userSpaceOnUse">
<stop stop-color="#00A0FF"/>
<stop offset="0.007" stop-color="#00A1FF"/>
<stop offset="0.26" stop-color="#00BEFF"/>
<stop offset="0.512" stop-color="#00D2FF"/>
<stop offset="0.76" stop-color="#00DFFF"/>
<stop offset="1" stop-color="#00E3FF"/>
</linearGradient>
<linearGradient id="paint1_linear_60_620" x1="27.3706" y1="27.9594" x2="5.30998" y2="27.9594" gradientUnits="userSpaceOnUse">
<stop stop-color="#FFE000"/>
<stop offset="0.409" stop-color="#FFBD00"/>
<stop offset="0.775" stop-color="#FFA500"/>
<stop offset="1" stop-color="#FF9C00"/>
</linearGradient>
<linearGradient id="paint2_linear_60_620" x1="19.162" y1="29.9573" x2="-0.592918" y2="50.6825" gradientUnits="userSpaceOnUse">
<stop stop-color="#FF3A44"/>
<stop offset="1" stop-color="#C31162"/>
</linearGradient>
<linearGradient id="paint3_linear_60_620" x1="3.18" y1="10.7278" x2="12.0014" y2="19.9825" gradientUnits="userSpaceOnUse">
<stop stop-color="#32A071"/>
<stop offset="0.069" stop-color="#2DA771"/>
<stop offset="0.476" stop-color="#15CF74"/>
<stop offset="0.801" stop-color="#06E775"/>
<stop offset="1" stop-color="#00F076"/>
</linearGradient>
</defs>
</svg>
