<svg width="102" height="138" viewBox="0 0 102 138" fill="none" xmlns="http://www.w3.org/2000/svg">
<path fill-rule="evenodd" clip-rule="evenodd" d="M0.440918 27.8369H101.057V137.6H0.440918V27.8369Z" fill="#D650C7"/>
<path d="M25.5956 48.4172C29.3844 48.4172 32.4558 45.3458 32.4558 41.557C32.4558 37.7682 29.3844 34.6968 25.5956 34.6968C21.8068 34.6968 18.7354 37.7682 18.7354 41.557C18.7354 45.3458 21.8068 48.4172 25.5956 48.4172Z" fill="#5B68C0"/>
<path d="M75.9032 48.4172C79.692 48.4172 82.7634 45.3458 82.7634 41.557C82.7634 37.7682 79.692 34.6968 75.9032 34.6968C72.1144 34.6968 69.043 37.7682 69.043 41.557C69.043 45.3458 72.1144 48.4172 75.9032 48.4172Z" fill="#5B68C0"/>
<path d="M25.5947 41.5571C25.5947 55.4494 36.8566 66.7112 50.7488 66.7112C64.6411 66.7112 75.9029 55.4494 75.9029 41.5571" stroke="white" stroke-width="6" stroke-linecap="round"/>
<path fill-rule="evenodd" clip-rule="evenodd" d="M0.440918 0.395996H101.057L96.4839 14.1164L101.057 27.8368H0.440918L5.01439 14.1164L0.440918 0.395996Z" fill="#FF78C7"/>
</svg>
