<svg width="30" height="30" viewBox="0 0 30 30" fill="none" xmlns="http://www.w3.org/2000/svg">
<path d="M15 30C23.2843 30 30 23.2843 30 15C30 6.71573 23.2843 0 15 0C6.71573 0 0 6.71573 0 15C0 23.2843 6.71573 30 15 30Z" fill="#626262"/>
<path fill-rule="evenodd" clip-rule="evenodd" d="M21.7578 10.9486C21.7578 10.9486 23.0011 10.8507 23.5 10.4795C23.5 10.4795 23.3804 10.9068 21.8844 12.2587C21.8844 12.2587 22.3881 19.5534 14.713 21.3399C14.713 21.3399 10.8206 22.1688 8 20.0544C8 20.0544 10.9527 20.5781 12.6139 18.7465C12.6139 18.7465 10.4711 18.7681 9.79332 16.5888C9.79332 16.5888 10.6024 16.763 11.0833 16.5452C11.0833 16.5452 8.65603 16.0434 8.69981 13.406C8.69981 13.406 9.35584 13.8857 9.94601 13.7984C9.94601 13.7984 7.75974 11.9451 9.11521 9.63524C9.11521 9.63524 12.0447 13.0884 15.6755 12.8833C15.6122 12.6361 15.578 12.3772 15.578 12.1095C15.578 10.3926 16.975 9 18.6981 9C19.5686 9 20.356 9.35577 20.9222 9.92902C21.3373 9.93599 22.1909 9.86227 23.0434 9.2538C23.0434 9.25417 23.0923 9.91912 21.7578 10.9486Z" fill="white"/>
</svg>
